<?xml version="1.0" encoding="utf-8"?>
<!-- Generator: Adobe Illustrator 16.0.0, SVG Export Plug-In . SVG Version: 6.00 Build 0)  -->
<!DOCTYPE svg PUBLIC "-//W3C//DTD SVG 1.0//EN" "http://www.w3.org/TR/2001/REC-SVG-20010904/DTD/svg10.dtd">
<svg version="1.0" id="Layer_1" xmlns="http://www.w3.org/2000/svg" xmlns:xlink="http://www.w3.org/1999/xlink" x="0px" y="0px"
	 width="100px" height="100px" viewBox="0 0 100 100" enable-background="new 0 0 100 100" xml:space="preserve">
<path d="M50,9.999c-22.09,0-40,17.904-40,39.994c0,7.803,2.266,15.059,6.13,21.211L10.254,85.39
	c-0.703,1.703,0.104,3.649,1.804,4.355c0.853,0.352,1.764,0.329,2.552,0l14.187-5.875C34.948,87.73,42.2,89.999,50,89.999
	c22.087,0,40-17.913,40-40.006C90,27.903,72.087,9.999,50,9.999z M64.141,64.137c-2.598,2.604-6.823,2.604-9.431,0
	c0,0-18.851-18.857-18.848-18.857c-2.604-2.604-2.604-6.823,0-9.427l4.711-4.714l7.07,11.784l-3.535,3.535l9.424,9.427l3.535-3.535
	l11.793,7.077L64.141,64.137z"/>
</svg>
