<svg xmlns="http://www.w3.org/2000/svg" viewBox="0 0 76.83 67.57"><defs><style>.cls-1{fill:#a4d8ee;}.cls-2{fill:#4d4e54;}.cls-3{fill:#63b5e4;}.cls-4{fill:#f74910;}.cls-13,.cls-5{fill:#fff;}.cls-15,.cls-5{opacity:0.3;}.cls-6{opacity:0.2;}.cls-7{fill:#f0f0f0;}.cls-8{fill:#75b924;}.cls-9{fill:#f1f1f1;}.cls-10,.cls-15{fill:#7a7a7a;}.cls-11{fill:#d5d4d9;}.cls-12{fill:#d9d9d9;}.cls-14{fill:#868a95;}.cls-16{fill:#666;}.cls-17{fill:#7ebdd5;}</style></defs><title>Varlık 6</title><g id="katman_2" data-name="katman 2"><g id="Icons"><path class="cls-1" d="M68.33,25.81H64.55a2,2,0,0,1-2-2V11.29h7.76V23.82A2,2,0,0,1,68.33,25.81Z"/><ellipse class="cls-1" cx="66.44" cy="8.06" rx="4.87" ry="1.99"/><rect class="cls-2" x="60.9" y="60.41" width="1.66" height="3.93"/><rect class="cls-3" x="25.07" y="44.35" width="10.42" height="8.27"/><path class="cls-3" d="M40.29,52.62a68.87,68.87,0,0,1-10,1,68.87,68.87,0,0,1-10-1,36.36,36.36,0,0,1,10-2A36.36,36.36,0,0,1,40.29,52.62Z"/><path class="cls-3" d="M44.51,44.35a43.52,43.52,0,0,1-14.23,2.48,43.54,43.54,0,0,1-14.23-2.48,43.55,43.55,0,0,1,14.23-2.48A43.53,43.53,0,0,1,44.51,44.35Z"/><path class="cls-1" d="M.5,67.57V56.77c0-2.29,2.22-4.15,5-4.15H55.93c2.74,0,5,1.86,5,4.15v10.8Z"/><path class="cls-3" d="M61.39,67.57h-1V56.77c0-2-2-3.66-4.47-3.66H5.46C3,53.12,1,54.76,1,56.77v10.8H0V56.77c0-2.56,2.45-4.65,5.46-4.65H55.93c3,0,5.46,2.09,5.46,4.65Z"/><circle class="cls-4" cx="5.71" cy="57.5" r="1.99"/><path class="cls-5" d="M5.71,55.78a2,2,0,0,1,2,1.85s0-.09,0-.13a2,2,0,0,0-4,0s0,.09,0,.13A2,2,0,0,1,5.71,55.78Z"/><path class="cls-6" d="M5.71,59.22a2,2,0,0,0,2-1.85s0,.09,0,.13a2,2,0,1,1-4,0s0-.09,0-.13A2,2,0,0,0,5.71,59.22Z"/><path class="cls-7" d="M5.71,58.9a1.26,1.26,0,0,1-.79-2.23.17.17,0,1,1,.21.27.92.92,0,1,0,1.16,0,.17.17,0,0,1,0-.24.17.17,0,0,1,.24,0,1.26,1.26,0,0,1-.79,2.23Z"/><path class="cls-7" d="M5.71,57.76a.17.17,0,0,1-.17-.17V56.27a.17.17,0,1,1,.34,0v1.31A.17.17,0,0,1,5.71,57.76Z"/><circle class="cls-8" cx="11.67" cy="57.5" r="1.99"/><path class="cls-5" d="M11.67,55.78a2,2,0,0,1,2,1.85s0-.09,0-.13a2,2,0,0,0-4,0s0,.09,0,.13A2,2,0,0,1,11.67,55.78Z"/><path class="cls-6" d="M11.67,59.22a2,2,0,0,0,2-1.85s0,.09,0,.13a2,2,0,1,1-4,0s0-.09,0-.13A2,2,0,0,0,11.67,59.22Z"/><polygon class="cls-7" points="10.95 56.39 12.87 57.5 10.95 58.61 10.95 56.39"/><polygon class="cls-6" points="11.08 56.66 12.7 57.59 12.87 57.5 10.95 56.39 10.95 58.61 11.08 58.53 11.08 56.66"/><path class="cls-9" d="M12,64.68h-3V61.47h3a1.07,1.07,0,0,1,1.07,1.07v1.07A1.07,1.07,0,0,1,12,64.68Z"/><path class="cls-6" d="M12,61.47h-.12A1.07,1.07,0,0,1,13,62.54v1.07a1.07,1.07,0,0,1-1.07,1.07H12a1.07,1.07,0,0,0,1.07-1.07V62.54A1.07,1.07,0,0,0,12,61.47Z"/><path class="cls-5" d="M9.26,61.59h3a1.06,1.06,0,0,1,.47.11,1.06,1.06,0,0,0-.66-.23h-3v3.21h.19Z"/><path class="cls-9" d="M5.35,64.68h3V61.47h-3a1.07,1.07,0,0,0-1.07,1.07v1.07A1.07,1.07,0,0,0,5.35,64.68Z"/><path class="cls-6" d="M5.35,61.47h.12A1.07,1.07,0,0,0,4.4,62.54v1.07a1.07,1.07,0,0,0,1.07,1.07H5.35a1.07,1.07,0,0,1-1.07-1.07V62.54A1.07,1.07,0,0,1,5.35,61.47Z"/><path class="cls-5" d="M8.12,61.59h-3a1,1,0,0,0-.47.11,1.05,1.05,0,0,1,.66-.24h3v3.21H8.12Z"/><path class="cls-10" d="M42.32,64.56h-12a2.14,2.14,0,0,1-2.1-2.18V57.81a2.14,2.14,0,0,1,2.1-2.19h12a2.14,2.14,0,0,1,2.1,2.19v4.57A2.14,2.14,0,0,1,42.32,64.56Z"/><path class="cls-9" d="M43.14,57.3v2.47H40.69V57.3a.86.86,0,0,1,.82-.89h.82A.86.86,0,0,1,43.14,57.3Z"/><path class="cls-6" d="M40.69,57.3v.1a.86.86,0,0,1,.82-.89h.82a.86.86,0,0,1,.82.89v2.37h0V57.3a.86.86,0,0,0-.82-.89h-.82A.86.86,0,0,0,40.69,57.3Z"/><path class="cls-5" d="M40.78,59.62V57.15a1,1,0,0,1,.09-.4.94.94,0,0,0-.18.55v2.47h2.46v-.16Z"/><path class="cls-9" d="M43.14,62.89V60.42H40.69v2.47a.86.86,0,0,0,.82.89h.82A.86.86,0,0,0,43.14,62.89Z"/><path class="cls-6" d="M40.69,62.89v-.1a.86.86,0,0,0,.82.89h.82a.86.86,0,0,0,.82-.89V60.42h0v2.47a.86.86,0,0,1-.82.89h-.82A.86.86,0,0,1,40.69,62.89Z"/><path class="cls-5" d="M40.78,60.58V63a1,1,0,0,0,.09.39.92.92,0,0,1-.18-.55V60.42h2.46v.16Z"/><path class="cls-9" d="M39.42,57.3v2.47H37V57.3a.86.86,0,0,1,.82-.89h.82A.86.86,0,0,1,39.42,57.3Z"/><path class="cls-6" d="M37,57.3v.1a.86.86,0,0,1,.82-.89h.82a.86.86,0,0,1,.82.89v2.37h0V57.3a.86.86,0,0,0-.82-.89h-.82A.86.86,0,0,0,37,57.3Z"/><path class="cls-5" d="M37.06,59.62V57.15a.92.92,0,0,1,.09-.4.92.92,0,0,0-.18.55v2.47h2.45v-.16Z"/><path class="cls-9" d="M39.42,62.89V60.42H37v2.47a.86.86,0,0,0,.82.89h.82A.86.86,0,0,0,39.42,62.89Z"/><path class="cls-6" d="M37,62.89v-.1a.86.86,0,0,0,.82.89h.82a.86.86,0,0,0,.82-.89V60.42h0v2.47a.86.86,0,0,1-.82.89h-.82A.86.86,0,0,1,37,62.89Z"/><path class="cls-5" d="M37.05,60.58V63a1,1,0,0,0,.09.39.93.93,0,0,1-.18-.55V60.42h2.45v.16Z"/><path class="cls-9" d="M35.69,57.3v2.47H33.24V57.3a.86.86,0,0,1,.82-.89h.82A.86.86,0,0,1,35.69,57.3Z"/><path class="cls-6" d="M33.24,57.3v.1a.86.86,0,0,1,.82-.89h.82a.86.86,0,0,1,.82.89v2.37h0V57.3a.86.86,0,0,0-.82-.89h-.82A.86.86,0,0,0,33.24,57.3Z"/><path class="cls-5" d="M33.33,59.62V57.15a1,1,0,0,1,.09-.4.94.94,0,0,0-.18.55v2.47h2.46v-.16Z"/><path class="cls-9" d="M35.69,62.89V60.42H33.24v2.47a.86.86,0,0,0,.82.89h.82A.86.86,0,0,0,35.69,62.89Z"/><path class="cls-6" d="M33.24,62.89v-.1a.86.86,0,0,0,.82.89h.82a.86.86,0,0,0,.82-.89V60.42h0v2.47a.86.86,0,0,1-.82.89h-.82A.86.86,0,0,1,33.24,62.89Z"/><path class="cls-5" d="M33.33,60.58V63a1,1,0,0,0,.09.39.92.92,0,0,1-.18-.55V60.42h2.45v.16Z"/><path class="cls-9" d="M32,57.3v2.47H29.51V57.3a.86.86,0,0,1,.82-.89h.82A.86.86,0,0,1,32,57.3Z"/><path class="cls-6" d="M29.51,57.3v.1a.86.86,0,0,1,.82-.89h.82a.86.86,0,0,1,.82.89v2.37h0V57.3a.86.86,0,0,0-.82-.89h-.82A.86.86,0,0,0,29.51,57.3Z"/><path class="cls-5" d="M29.6,59.62V57.15a1,1,0,0,1,.09-.4.93.93,0,0,0-.18.55v2.47H32v-.16Z"/><path class="cls-9" d="M32,62.89V60.42H29.51v2.47a.86.86,0,0,0,.82.89h.82A.86.86,0,0,0,32,62.89Z"/><path class="cls-6" d="M29.51,62.89v-.1a.86.86,0,0,0,.82.89h.82a.86.86,0,0,0,.82-.89V60.42h0v2.47a.86.86,0,0,1-.82.89h-.82A.86.86,0,0,1,29.51,62.89Z"/><path class="cls-5" d="M29.6,60.58V63a1,1,0,0,0,.09.39.93.93,0,0,1-.18-.55V60.42H32v.16Z"/><rect class="cls-1" x="3.15" width="54.28" height="44.35" rx="4.96" ry="4.96"/><path class="cls-5" d="M5.6,8.21a5.57,5.57,0,0,1,5.57-5.57s42.06-2,40.47-2H8.72A4.8,4.8,0,0,0,3.91,5.48V38.79C3.91,40.25,5.6,8.21,5.6,8.21Z"/><rect class="cls-2" x="8.11" y="4.96" width="44.35" height="34.42"/><polygon class="cls-6" points="9.1 5.96 52.46 5.96 52.46 4.96 8.11 4.96 8.11 39.38 9.1 39.38 9.1 5.96"/><path class="cls-11" d="M48.16,31.6c-9.85,5.39-25,6.21-35.75,0L25,8.39c4,1.66,6.55,1.66,10.57,0Z"/><path class="cls-2" d="M36.77,18.61a14.2,14.2,0,0,0-4.71.49h0l-.25-.16a.77.77,0,0,0,.13-.22,7.45,7.45,0,0,1,.75-.52,1.2,1.2,0,0,1,1.12,0c.17,0,.43-.33.57-.83s.12-.91,0-1h0c-.53-.3-3.33.16-4.21.46h0l-1,.34.41-.45a3,3,0,0,1,1.13-.76,4.81,4.81,0,0,1,1.62.07c.16.06.42-.25.6-.7s.19-.86,0-.92h-.07a13.19,13.19,0,0,1-2.35-.3c-.25-.17-.37-2.17-.37-2.17h0a.08.08,0,0,0,0,0c-.09-.14-.5,0-.91.21s-.65.55-.6.7h0s.2,1,.21,1.39-1,1-1.39,1.3c-.22,0-1.58.19-3.07,3.31S23.22,26,28,30.9C30.49,33.51,32,33.15,34,29.14c1.21-2.41,1.56-7.22,1-8a2,2,0,0,0-.37-.4l.14,0c.4,0,1.29-.09,1.41-.1h0c.19.05.46-.35.61-.89S37,18.66,36.77,18.61Z"/><circle class="cls-12" cx="52.96" cy="60.09" r="5.35"/><path class="cls-13" d="M53,65.72a5.63,5.63,0,1,1,5.63-5.63A5.63,5.63,0,0,1,53,65.72ZM53,55A5.07,5.07,0,1,0,58,60.09,5.08,5.08,0,0,0,53,55Z"/><circle class="cls-14" cx="52.96" cy="60.1" r="4.44"/><ellipse class="cls-5" cx="51.86" cy="58.88" rx="2.36" ry="1.5" transform="translate(-26.59 59.99) rotate(-49.44)"/><rect class="cls-9" x="15.48" y="55.2" width="2.83" height="2.83" rx="0.51" ry="0.51"/><path class="cls-5" d="M15.64,57.67V55.86a.51.51,0,0,1,.51-.51H18a.5.5,0,0,1,.27.09.5.5,0,0,0-.42-.24H16a.51.51,0,0,0-.51.51v1.81a.5.5,0,0,0,.24.42A.5.5,0,0,1,15.64,57.67Z"/><path class="cls-15" d="M18.16,55.55v1.81a.51.51,0,0,1-.51.51H15.84a.48.48,0,0,1-.27-.09A.5.5,0,0,0,16,58H17.8a.51.51,0,0,0,.51-.51V55.71a.5.5,0,0,0-.24-.42A.49.49,0,0,1,18.16,55.55Z"/><rect class="cls-9" x="19.33" y="55.2" width="2.83" height="2.83" rx="0.51" ry="0.51"/><path class="cls-5" d="M19.48,57.67V55.86a.51.51,0,0,1,.51-.51h1.81a.5.5,0,0,1,.27.09.5.5,0,0,0-.42-.24H19.83a.51.51,0,0,0-.51.51v1.81a.5.5,0,0,0,.24.42A.5.5,0,0,1,19.48,57.67Z"/><path class="cls-15" d="M22,55.55v1.81a.51.51,0,0,1-.51.51H19.68a.49.49,0,0,1-.27-.09.5.5,0,0,0,.42.24h1.81a.51.51,0,0,0,.51-.51V55.71a.5.5,0,0,0-.24-.42A.5.5,0,0,1,22,55.55Z"/><rect class="cls-9" x="23.17" y="55.2" width="2.83" height="2.83" rx="0.51" ry="0.51"/><path class="cls-5" d="M23.32,57.67V55.86a.51.51,0,0,1,.51-.51h1.81a.49.49,0,0,1,.27.09.5.5,0,0,0-.42-.24H23.68a.51.51,0,0,0-.51.51v1.81a.5.5,0,0,0,.24.42A.49.49,0,0,1,23.32,57.67Z"/><path class="cls-15" d="M25.84,55.55v1.81a.51.51,0,0,1-.51.51H23.52a.49.49,0,0,1-.27-.09.5.5,0,0,0,.42.24h1.81a.51.51,0,0,0,.51-.51V55.71a.5.5,0,0,0-.24-.42A.5.5,0,0,1,25.84,55.55Z"/><rect class="cls-9" x="15.48" y="59.04" width="2.83" height="2.83" rx="0.51" ry="0.51"/><path class="cls-5" d="M15.64,61.51V59.7a.51.51,0,0,1,.51-.51H18a.5.5,0,0,1,.27.09A.5.5,0,0,0,17.8,59H16a.51.51,0,0,0-.51.51v1.81a.5.5,0,0,0,.24.42A.5.5,0,0,1,15.64,61.51Z"/><path class="cls-15" d="M18.16,59.4v1.81a.51.51,0,0,1-.51.51H15.84a.48.48,0,0,1-.27-.09.5.5,0,0,0,.42.24H17.8a.51.51,0,0,0,.51-.51V59.55a.5.5,0,0,0-.24-.42A.5.5,0,0,1,18.16,59.4Z"/><rect class="cls-9" x="19.33" y="59.04" width="2.83" height="2.83" rx="0.51" ry="0.51"/><path class="cls-5" d="M19.48,61.51V59.7a.51.51,0,0,1,.51-.51h1.81a.5.5,0,0,1,.27.09.5.5,0,0,0-.42-.24H19.83a.51.51,0,0,0-.51.51v1.81a.5.5,0,0,0,.24.42A.5.5,0,0,1,19.48,61.51Z"/><path class="cls-15" d="M22,59.4v1.81a.51.51,0,0,1-.51.51H19.68a.49.49,0,0,1-.27-.09.5.5,0,0,0,.42.24h1.81a.51.51,0,0,0,.51-.51V59.55a.5.5,0,0,0-.24-.42A.5.5,0,0,1,22,59.4Z"/><rect class="cls-9" x="23.17" y="59.04" width="2.83" height="2.83" rx="0.51" ry="0.51"/><path class="cls-5" d="M23.32,61.51V59.7a.51.51,0,0,1,.51-.51h1.81a.49.49,0,0,1,.27.09.5.5,0,0,0-.42-.24H23.68a.51.51,0,0,0-.51.51v1.81a.5.5,0,0,0,.24.42A.5.5,0,0,1,23.32,61.51Z"/><path class="cls-15" d="M25.84,59.4v1.81a.51.51,0,0,1-.51.51H23.52a.48.48,0,0,1-.27-.09.5.5,0,0,0,.42.24h1.81a.51.51,0,0,0,.51-.51V59.55a.5.5,0,0,0-.24-.42A.5.5,0,0,1,25.84,59.4Z"/><rect class="cls-9" x="15.48" y="62.88" width="2.83" height="2.83" rx="0.51" ry="0.51"/><path class="cls-5" d="M15.64,65.35V63.54a.51.51,0,0,1,.51-.51H18a.5.5,0,0,1,.27.09.5.5,0,0,0-.42-.24H16a.51.51,0,0,0-.51.51V65.2a.5.5,0,0,0,.24.42A.5.5,0,0,1,15.64,65.35Z"/><path class="cls-15" d="M18.16,63.24V65a.51.51,0,0,1-.51.51H15.84a.49.49,0,0,1-.27-.09.5.5,0,0,0,.42.24H17.8a.51.51,0,0,0,.51-.51V63.39a.5.5,0,0,0-.24-.42A.49.49,0,0,1,18.16,63.24Z"/><rect class="cls-9" x="19.33" y="62.88" width="2.83" height="2.83" rx="0.51" ry="0.51"/><path class="cls-5" d="M19.48,65.35V63.54A.51.51,0,0,1,20,63h1.81a.5.5,0,0,1,.27.09.5.5,0,0,0-.42-.24H19.83a.51.51,0,0,0-.51.51V65.2a.5.5,0,0,0,.24.42A.5.5,0,0,1,19.48,65.35Z"/><path class="cls-15" d="M22,63.24V65a.51.51,0,0,1-.51.51H19.68a.5.5,0,0,1-.27-.09.5.5,0,0,0,.42.24h1.81a.51.51,0,0,0,.51-.51V63.39a.5.5,0,0,0-.24-.42A.5.5,0,0,1,22,63.24Z"/><rect class="cls-9" x="23.17" y="62.88" width="2.83" height="2.83" rx="0.51" ry="0.51"/><path class="cls-5" d="M23.32,65.35V63.54a.51.51,0,0,1,.51-.51h1.81a.49.49,0,0,1,.27.09.5.5,0,0,0-.42-.24H23.68a.51.51,0,0,0-.51.51V65.2a.5.5,0,0,0,.24.42A.49.49,0,0,1,23.32,65.35Z"/><path class="cls-15" d="M25.84,63.24V65a.51.51,0,0,1-.51.51H23.52a.49.49,0,0,1-.27-.09.5.5,0,0,0,.42.24h1.81A.51.51,0,0,0,26,65.2V63.39a.5.5,0,0,0-.24-.42A.5.5,0,0,1,25.84,63.24Z"/><path class="cls-16" d="M72.12,63.12H62.56V61.63h9.56a3.23,3.23,0,0,0,3.23-3.23V50.13a3.23,3.23,0,0,0-3.23-3.23H70.5a4.72,4.72,0,0,1-4.72-4.72V25.81h1.49V42.19a3.23,3.23,0,0,0,3.23,3.23h1.61a4.72,4.72,0,0,1,4.72,4.72V58.4A4.72,4.72,0,0,1,72.12,63.12Z"/><rect class="cls-2" x="65.04" y="25.81" width="2.79" height="0.99"/><polygon class="cls-17" points="71.31 8.06 61.57 8.06 62.56 11.29 70.32 11.29 71.31 8.06"/><path class="cls-5" d="M65.71,23.82V11.29l-.46-2.77a1.57,1.57,0,0,1-.08-.45,2.23,2.23,0,0,1,2.13-2c-.22,0-.45,0-.68,0-2.07,0-3.75.89-3.75,2a1.09,1.09,0,0,0,.11.45l.66,2.77V23.82a1.8,1.8,0,0,0,1.53,2h1.59C66.19,25.81,65.71,24.92,65.71,23.82Z"/></g></g></svg>