      <svg xmlns="http://www.w3.org/2000/svg" viewBox="0 0 420.704 420.704" class="h-32">
                    <path d="M269.575 12.724l-46.062 250.052 32.902 6.58c69.641-50.997 99.526-256.632 13.16-256.632z"
                        fill="#80362d" />
                    <path
                        d="M269.575 12.724c-11.516-6.992-72.293-24.749-118.446 0-56.755 30.434-106.382 139.283-26.321 250.052.114.157 59.223-6.58 59.223-6.58l85.544-243.472z"
                        fill="#80362d" />
                    <path
                        d="M256.772 232.084h-.358v-15.37H164.29v15.354c0 15.042-.063 31.392-13.161 41.282v147.354h118.446V273.12c-12.763-9.915-12.803-26.123-12.803-41.036z"
                        fill="#ffd7a3" />
                    <path
                        d="M210.352 354.9c-14.15 0-27.502-1.876-39.482-5.134v70.937h92.124v-75.279c-14.928 5.957-33.053 9.476-52.642 9.476z"
                        fill="#545465" />
                    <path
                        d="M262.994 302.258a36.299 36.299 0 006.58 1.174V273.12c-12.762-9.915-12.803-26.124-12.803-41.037l-.009-.382v-15.37l-72.732.382-19.741 6.58c13.161 14.807 53.466 66.627 98.705 78.965z"
                        fill="#fdc88e" />
                    <path
                        d="M302.476 131.169c0 52.696-52.408 118.446-92.124 118.446s-92.124-65.75-92.124-118.446 41.246-72.384 92.124-72.384 92.124 19.688 92.124 72.384z"
                        fill="#ffe1b2" />
                    <path
                        d="M223.512 25.884c-3.697 0-15.701 4.154-25.512 7.794l-.809-1.214-3.698 2.908a655.391 655.391 0 00-9.462 3.672l1.539 2.566c-24.976 19.678-81.96 64.693-87.084 69.818-6.58 6.58 39.482 174.464 39.482 78.964 0-79.786 44.327-95.587 85.544-105.285 18.644-4.387 24.128-15.354 26.321-26.321 2.194-10.967-19.74-32.902-26.321-32.902z"
                        fill="#80362d" />
                    <path
                        d="M243.253 65.366c12.064 43.32 36.192 62.924 58.812 68.682 12.395 3.155 6.992-35.78 6.992-35.78s-17.548-44.966-19.741-46.062c-2.193-1.097-19.741-39.482-19.741-39.482l-39.482 32.902 13.16 19.74z"
                        fill="#80362d" />
                    <path
                        d="M158.355 265.465c-6.163 10.013-18.728 17.052-44.514 17.052h-2.193c-39.976 0-72.384 32.407-72.384 72.384v46.062c0 10.902 8.838 19.741 19.741 19.741h135.028l-35.678-155.239zM262.349 265.465c6.163 10.013 18.728 17.052 44.514 17.052h2.193c39.976 0 72.384 32.407 72.384 72.384v46.062c0 10.902-8.838 19.741-19.741 19.741H226.671l35.678-155.239z"
                        fill="#e4ebf0" />
                    <circle cx="111.647" cy="387.802" r="19.741" fill="#d0d7dc" />
                    <path
                        d="M333.783 410.338l-8.135-5.591c7.229-10.518 11.376-26.288 11.376-43.267 0-29.427-12.807-54.288-27.966-54.288s-27.966 24.861-27.966 54.288c0 16.979 4.146 32.749 11.376 43.267l-8.135 5.591c-8.331-12.123-13.111-29.931-13.111-48.858 0-35.977 16.619-64.158 37.837-64.158 21.217 0 37.837 28.182 37.837 64.158-.003 18.927-4.782 36.735-13.113 48.858z"
                        fill="#d0d7dc" />
                    <circle cx="289.316" cy="407.543" r="6.58" fill="#545465" />
                    <circle cx="328.798" cy="407.543" r="6.58" fill="#545465" />
                    <path
                        d="M111.647 379.577a4.934 4.934 0 01-4.935-4.935c0-85.274 40.304-108.646 42.02-109.599a4.928 4.928 0 016.71 1.917 4.934 4.934 0 01-1.892 6.698c-.484.28-36.968 22.172-36.968 100.984a4.934 4.934 0 01-4.935 4.935z"
                        fill="#d0d7dc" />
                    <circle cx="111.647" cy="387.802" r="10.419" fill="#b2b9bf" />
                    <path
                        d="M309.057 307.195a4.939 4.939 0 01-4.654-3.295c-4.288-12.15-11.268-17.291-11.337-17.339a4.936 4.936 0 015.661-8.087c.389.273 9.585 6.842 14.984 22.143a4.935 4.935 0 01-4.654 6.578z"
                        fill="#d0d7dc" />
                    <g>
                        <path
                            d="M292.676 131.771c10.767-2.468 17.821 2.805 17.821 13.161 0 13.709-14.479 47.296-29.701 26.321s11.88-39.482 11.88-39.482z"
                            fill="#ffe1b2" />
                    </g>
                </svg>