<svg xmlns="http://www.w3.org/2000/svg" viewBox="0 0 56.66 68.91"><defs><style>.cls-1{fill:#4f9ec9;}.cls-2{fill:#207ca9;}.cls-3{fill:#63b5e4;}.cls-4{opacity:0.2;}.cls-5,.cls-7{opacity:0.3;}.cls-6{fill:#93d3ee;}.cls-7{fill:#fff;}.cls-8{fill:#3b3c42;}.cls-9{fill:#daf0f5;}.cls-10{fill:#e2e2e2;}.cls-11{fill:#4d4e54;}.cls-12{fill:#2d2d2d;}.cls-13{fill:#ff6936;}.cls-14{fill:#edc45c;}.cls-15{fill:#96b655;}</style></defs><title>Varlık 8</title><g id="katman_2" data-name="katman 2"><g id="Icons"><rect class="cls-1" x="26.91" y="16.1" width="29.75" height="28.53"/><rect class="cls-2" x="26.91" y="15.5" width="29.75" height="1.21"/><rect class="cls-2" x="26.91" y="44.03" width="29.75" height="1.21"/><path class="cls-3" d="M43.78,26.69v7.37c0,4.36-1.88,8.13-4.62,10a7.18,7.18,0,0,1-1.07.61,6.74,6.74,0,0,1-1.86.55,6.52,6.52,0,0,1-.88.06H26.91V15.5h8.44a6.44,6.44,0,0,1,.88.06,6.74,6.74,0,0,1,1.86.55,7.1,7.1,0,0,1,1.07.61C41.9,18.56,43.78,22.33,43.78,26.69Z"/><path class="cls-4" d="M44.77,26.83v7.09c0,4.42-1.95,8.25-4.78,10.12a7,7,0,0,1-3.89,1.21H27.66V44.16H36.1A5.25,5.25,0,0,0,37.3,44c3.61-.77,6.39-5,6.39-10.12V26.83c0-5.11-2.78-9.34-6.39-10.12a5.28,5.28,0,0,0-1.19-.13H27.66V15.5H36.1A7,7,0,0,1,40,16.71C42.83,18.57,44.77,22.4,44.77,26.83Z"/><path class="cls-2" d="M44,26.83v7.09c0,4.42-1.95,8.25-4.79,10.12a6.91,6.91,0,0,1-1.09.61,7.14,7.14,0,0,1-1.92.55,6.52,6.52,0,0,1-.88.06H26.91V44.16h8.44A5.26,5.26,0,0,0,36.54,44c3.62-.77,6.4-5,6.4-10.12V26.83c0-5.11-2.78-9.34-6.4-10.12a5.28,5.28,0,0,0-1.19-.13H26.91V15.5h8.44a6.44,6.44,0,0,1,.88.06,7.14,7.14,0,0,1,1.92.55,6.84,6.84,0,0,1,1.09.61C42.08,18.57,44,22.4,44,26.83Z"/><path class="cls-5" d="M34.28,15.5V27.66a6.63,6.63,0,0,1-6.61,6.62h-.75V15.5Z"/><rect class="cls-6" width="33.12" height="33.12" rx="6.39" ry="6.39"/><path class="cls-7" d="M2.22,28.33V8.46A6.25,6.25,0,0,1,8.46,2.22H28.33a6.2,6.2,0,0,1,3.37,1A6.24,6.24,0,0,0,26.44.33H6.58A6.25,6.25,0,0,0,.33,6.58V26.44a6.24,6.24,0,0,0,2.88,5.25A6.2,6.2,0,0,1,2.22,28.33Z"/><rect class="cls-8" x="3.36" y="3.36" width="26.41" height="26.41" rx="3.04" ry="3.04"/><path class="cls-5" d="M29.15,4.58a3,3,0,0,1,.61,1.81V26.73a3,3,0,0,1-3,3H6.39a3,3,0,0,1-1.81-.62A3,3,0,0,0,7,30.37H27.34a3,3,0,0,0,3-3V7A3,3,0,0,0,29.15,4.58Z"/><path class="cls-9" d="M24.74,23.7H8.38a2.27,2.27,0,0,1-2.44-2V8a2.27,2.27,0,0,1,2.44-2H24.74a2.27,2.27,0,0,1,2.44,2V21.65A2.27,2.27,0,0,1,24.74,23.7Z"/><path class="cls-5" d="M6.54,22.26V8.59A2.27,2.27,0,0,1,9,6.54H25.35A2.74,2.74,0,0,1,26.88,7a2.53,2.53,0,0,0-2.13-1.07H8.38A2.27,2.27,0,0,0,5.94,8V21.65a1.92,1.92,0,0,0,.92,1.58A1.76,1.76,0,0,1,6.54,22.26Z"/><circle class="cls-10" cx="9.68" cy="26.65" r="1.82"/><path class="cls-10" d="M15.35,28.47a1.21,1.21,0,0,1-1.21-1.21V26a1.21,1.21,0,0,1,1.21-1.21h3.36v3.64Z"/><path class="cls-10" d="M22.68,28.47H19.32V24.83h3.36A1.21,1.21,0,0,1,23.9,26v1.21A1.21,1.21,0,0,1,22.68,28.47Z"/><rect class="cls-11" x="9.38" y="25.74" width="0.61" height="1.82"/><polygon class="cls-11" points="20.4 25.25 22.82 26.65 20.4 28.05 20.4 25.25"/><polygon class="cls-12" points="20.57 25.59 22.61 26.77 22.82 26.65 20.4 25.25 20.4 28.05 20.57 27.95 20.57 25.59"/><polygon class="cls-11" points="17.62 25.25 15.2 26.65 17.62 28.05 17.62 25.25"/><polygon class="cls-12" points="17.45 25.59 15.4 26.77 15.2 26.65 17.62 25.25 17.62 28.05 17.45 27.95 17.45 25.59"/><path class="cls-8" d="M17.1,17.41a.68.68,0,0,0-.54.27.68.68,0,0,0-1.21.41c0,.68,1.21,1.38,1.21,1.38s1.21-.71,1.21-1.38A.68.68,0,0,0,17.1,17.41Z"/><path class="cls-8" d="M12.86,22h0a.16.16,0,0,1-.16-.13L12,18.36l-.66,2.23a.16.16,0,0,1-.16.12H8.84v-.33H11l.82-2.74a.16.16,0,0,1,.16-.12.16.16,0,0,1,.15.13l.7,3.44.52-2.29a.17.17,0,0,1,.16-.13h0a.16.16,0,0,1,.16.12l.39,1.58h4v.33H14a.16.16,0,0,1-.16-.12l-.26-1L13,21.91A.17.17,0,0,1,12.86,22Z"/><path class="cls-8" d="M19.65,10.48V7.66h-.59A2.33,2.33,0,0,1,18.2,8v.5h.65v2h-.76v.65h2.21v-.65Z"/><path class="cls-8" d="M22.55,10.45a5.2,5.2,0,0,0-.58,0,3.19,3.19,0,0,0,1.11-1.8,1.06,1.06,0,0,0-1.15-1.1,1.47,1.47,0,0,0-1.16.55l.44.43a.9.9,0,0,1,.61-.36.47.47,0,0,1,.49.52c0,.49-.62,1.09-1.51,1.92v.46h2.44v-.68Z"/><path class="cls-8" d="M24.92,7.59c-.74,0-1.24.61-1.24,1.79s.5,1.81,1.24,1.81,1.24-.64,1.24-1.81S25.67,7.59,24.92,7.59Zm0,3c-.27,0-.48-.24-.48-1.19s.21-1.17.48-1.17.48.21.48,1.17S25.2,10.57,24.92,10.57Z"/><path class="cls-8" d="M22.66,14.74v0a.93.93,0,0,0-.6-1.72,1,1,0,0,0-.65,1.78v0a1,1,0,0,0-.59.85c0,.56.51,1,1.21,1s1.23-.42,1.23-1A1,1,0,0,0,22.66,14.74ZM22,13.57a.41.41,0,0,1,.42.45.77.77,0,0,1-.21.51c-.36-.13-.6-.27-.6-.56A.37.37,0,0,1,22,13.57Zm0,2.49a.49.49,0,0,1-.54-.49.76.76,0,0,1,.27-.55c.44.18.73.3.73.6A.42.42,0,0,1,22.05,16.06Z"/><path class="cls-8" d="M24.92,13c-.74,0-1.24.61-1.24,1.79s.5,1.82,1.24,1.82,1.24-.63,1.24-1.82S25.67,13,24.92,13Zm0,3c-.27,0-.48-.25-.48-1.19s.21-1.16.48-1.16.48.22.48,1.16S25.2,16,24.92,16Z"/><path class="cls-8" d="M22.25,19.8a1,1,0,0,0-.69.37c0-.81.33-1.08.71-1.08a.79.79,0,0,1,.54.24l.42-.48a1.38,1.38,0,0,0-1-.41c-.73,0-1.4.58-1.4,1.88S21.46,22,22.13,22a1.12,1.12,0,0,0,1.16-1.17A1,1,0,0,0,22.25,19.8Zm-.14,1.64c-.24,0-.47-.18-.54-.73a.63.63,0,0,1,.53-.34c.26,0,.45.14.45.5S22.36,21.44,22.12,21.44Z"/><path class="cls-8" d="M24.92,18.44c-.74,0-1.24.61-1.24,1.79S24.18,22,24.92,22s1.24-.64,1.24-1.81S25.67,18.44,24.92,18.44Zm0,3c-.27,0-.48-.25-.48-1.19s.21-1.16.48-1.16.48.21.48,1.16S25.2,21.42,24.92,21.42Z"/><rect class="cls-13" x="4.21" y="8.85" width="1.16" height="1.87"/><rect class="cls-14" x="4.21" y="11.94" width="1.16" height="1.87"/><rect class="cls-15" x="4.21" y="15.03" width="1.16" height="1.87"/><rect class="cls-8" x="8.12" y="15.66" width="2.04" height="0.61"/><path class="cls-8" d="M8.45,16l.4-.66h0l-1.07.43L6.64,16l1.12.25,1.07.42h0Z"/><rect class="cls-8" x="7.88" y="7.02" width="0.53" height="1.27"/><rect class="cls-8" x="8.64" y="7.02" width="0.53" height="1.27"/><rect class="cls-8" x="9.39" y="7.02" width="0.53" height="1.27"/><path class="cls-11" d="M36.18,68.91H22.46a6.72,6.72,0,0,1-6.71-6.72V33.12H18V62.2a4.48,4.48,0,0,0,4.48,4.48H36.18c2.43,0,4.48-1.28,4.48-2.8s-2.05-2.8-4.48-2.8H26.85c-3.76,0-6.71-2-6.71-4.62s2.95-4.62,6.71-4.62h9.33c2.47,0,4.48-1.65,4.48-3.69V45H42.9v3.12c0,3.27-3,5.93-6.71,5.93H26.85c-2.64,0-4.48,1.25-4.48,2.38s1.84,2.38,4.48,2.38h9.33c3.76,0,6.71,2.21,6.71,5S39.95,68.91,36.18,68.91Z"/><rect class="cls-8" x="40.1" y="45.04" width="3.36" height="3.12"/><rect class="cls-8" x="15.19" y="33.12" width="3.36" height="4.43"/></g></g></svg>