<svg xmlns="http://www.w3.org/2000/svg" viewBox="0 0 22.28 73.46"><defs><style>.cls-1{fill:#d73f0e;}.cls-2{fill:#fff;opacity:0.3;}.cls-3{fill:#e2c59c;}.cls-4{fill:#f3d4a8;}.cls-5{fill:#f77b52;}.cls-6{fill:#ec764e;}.cls-7{fill:#ac340b;}.cls-8{opacity:0.2;}.cls-9{fill:#f74910;}.cls-10{fill:#f1521d;}</style></defs><title>Varlık 7</title><g id="katman_2" data-name="katman 2"><g id="Icons"><rect class="cls-1" y="3.71" width="22.27" height="66.03"/><path class="cls-1" d="M22.28,69.75c0,2.05-5,3.71-11.14,3.71a33.06,33.06,0,0,1-3.39-.18,22.51,22.51,0,0,1-4.12-.8C1.4,71.81,0,70.84,0,69.75S1.4,67.69,3.63,67a22.69,22.69,0,0,1,4.12-.8A33.06,33.06,0,0,1,11.14,66C17.29,66,22.28,67.7,22.28,69.75Z"/><path class="cls-2" d="M7.75,3.82V73.29a22.51,22.51,0,0,1-4.12-.8V3.82Z"/><ellipse class="cls-3" cx="11.14" cy="3.71" rx="11.14" ry="3.71"/><path class="cls-1" d="M11.14,1.86c5.13,0,9.11.75,9.11,1.86s-4,1.86-9.11,1.86S2,4.82,2,3.71s4-1.86,9.11-1.86Zm0-1.86C5,0,0,1.66,0,3.71S5,7.42,11.14,7.42,22.27,5.76,22.27,3.71,17.29,0,11.14,0Z"/><path class="cls-4" d="M20.27,3.71v55.2a22.9,22.9,0,0,1-9.13,1.59,23.12,23.12,0,0,1-9.09-1.56V3.71Z"/><path class="cls-5" d="M18.64,3.71V57.6a26.62,26.62,0,0,1-7.5,1,27.1,27.1,0,0,1-7.51-1V3.71Z"/><path class="cls-6" d="M11.14,4.64a27.32,27.32,0,0,1-7.5-.93,27.19,27.19,0,0,1,7.5-.93,27.18,27.18,0,0,1,7.5.93A27.31,27.31,0,0,1,11.14,4.64Z"/><path class="cls-7" d="M17.25,4.2V56.11a28.81,28.81,0,0,1-6.11.61A28.91,28.91,0,0,1,5,56.11V4.2H5a30.06,30.06,0,0,1,6.1-.6,30,30,0,0,1,6.09.6Z"/><ellipse class="cls-8" cx="11.14" cy="55.94" rx="6.11" ry="0.77"/><path class="cls-8" d="M17.23,4.19H5a30.06,30.06,0,0,1,6.1-.6A30,30,0,0,1,17.23,4.19Z"/><circle class="cls-9" cx="8.91" cy="11.47" r="2.44"/><path class="cls-8" d="M8.91,13.66a2.44,2.44,0,0,1-2.43-2.31s0,.08,0,.13a2.44,2.44,0,1,0,4.87,0s0-.08,0-.13A2.43,2.43,0,0,1,8.91,13.66Z"/><path class="cls-2" d="M7.56,10.21c.24-.34.18-.49-.16-.25a1.83,1.83,0,0,0,0,3c.35.24.41.09.16-.25a2.2,2.2,0,0,1,0-2.52Z"/><circle class="cls-1" cx="8.91" cy="11.47" r="1.64"/><circle class="cls-10" cx="8.91" cy="11.47" r="1.14"/><path class="cls-2" d="M10.4,10.42c-.2-.29-.15-.41.14-.21a1.53,1.53,0,0,1,0,2.53c-.29.2-.34.08-.14-.21a1.84,1.84,0,0,0,0-2.11Z"/><circle class="cls-9" cx="12.95" cy="18.89" r="2.2"/><path class="cls-8" d="M12.95,20.87a2.2,2.2,0,0,1-2.2-2.09s0,.08,0,.11a2.2,2.2,0,1,0,4.41,0s0-.08,0-.11A2.2,2.2,0,0,1,12.95,20.87Z"/><path class="cls-2" d="M11.72,17.75c.22-.31.16-.44-.15-.22a1.65,1.65,0,0,0,0,2.73c.31.21.37.08.15-.23a2,2,0,0,1,0-2.28Z"/><circle class="cls-1" cx="12.95" cy="18.89" r="1.49"/><circle class="cls-10" cx="12.95" cy="18.89" r="1.03"/><path class="cls-2" d="M14.29,17.94c-.18-.26-.14-.37.13-.19a1.38,1.38,0,0,1,0,2.28c-.26.18-.31.07-.13-.19a1.66,1.66,0,0,0,0-1.91Z"/><circle class="cls-9" cx="9.55" cy="44.51" r="2.2"/><path class="cls-8" d="M9.55,46.48a2.2,2.2,0,0,1-2.2-2.09s0,.08,0,.11a2.2,2.2,0,1,0,4.41,0s0-.08,0-.11A2.2,2.2,0,0,1,9.55,46.48Z"/><path class="cls-2" d="M8.33,43.37c.22-.31.16-.44-.15-.23a1.65,1.65,0,0,0,0,2.73c.31.21.37.09.15-.23a2,2,0,0,1,0-2.28Z"/><circle class="cls-1" cx="9.55" cy="44.51" r="1.49"/><circle class="cls-10" cx="9.55" cy="44.51" r="1.03"/><path class="cls-2" d="M10.9,43.56c-.18-.26-.14-.37.13-.19a1.38,1.38,0,0,1,0,2.29c-.26.18-.31.07-.13-.19a1.66,1.66,0,0,0,0-1.91Z"/><circle class="cls-9" cx="13.6" cy="51.26" r="2.76"/><path class="cls-8" d="M13.6,53.73a2.76,2.76,0,0,1-2.75-2.61s0,.1,0,.14a2.76,2.76,0,1,0,5.52,0s0-.09,0-.14A2.76,2.76,0,0,1,13.6,53.73Z"/><path class="cls-2" d="M12.07,49.83c.27-.39.21-.55-.19-.28a2.07,2.07,0,0,0,0,3.42c.39.27.46.11.19-.28a2.5,2.5,0,0,1,0-2.85Z"/><circle class="cls-1" cx="13.6" cy="51.26" r="1.86"/><circle class="cls-10" cx="13.6" cy="51.26" r="1.29"/><path class="cls-2" d="M15.29,50.06c-.23-.32-.17-.46.16-.24a1.73,1.73,0,0,1,0,2.86c-.33.22-.38.09-.16-.24a2.08,2.08,0,0,0,0-2.39Z"/><circle class="cls-9" cx="9.55" cy="25.76" r="2.4"/><path class="cls-8" d="M9.55,27.91a2.4,2.4,0,0,1-2.39-2.28s0,.08,0,.12a2.4,2.4,0,1,0,4.8,0s0-.08,0-.12A2.4,2.4,0,0,1,9.55,27.91Z"/><path class="cls-2" d="M8.22,24.52c.24-.34.18-.48-.16-.25a1.8,1.8,0,0,0,0,3c.34.23.4.09.16-.25a2.17,2.17,0,0,1,0-2.48Z"/><circle class="cls-1" cx="9.55" cy="25.76" r="1.62"/><circle class="cls-10" cx="9.55" cy="25.76" r="1.12"/><path class="cls-2" d="M11,24.72c-.2-.28-.15-.4.14-.2a1.5,1.5,0,0,1,0,2.49c-.29.19-.33.08-.14-.21a1.81,1.81,0,0,0,0-2.08Z"/><circle class="cls-9" cx="13.72" cy="38.55" r="2.4"/><path class="cls-8" d="M13.72,40.7a2.4,2.4,0,0,1-2.39-2.27s0,.08,0,.12a2.4,2.4,0,0,0,4.8,0s0-.08,0-.12A2.4,2.4,0,0,1,13.72,40.7Z"/><path class="cls-2" d="M12.39,37.31c.24-.34.18-.48-.16-.24a1.8,1.8,0,0,0,0,3c.34.23.4.09.16-.25a2.17,2.17,0,0,1,0-2.48Z"/><circle class="cls-1" cx="13.72" cy="38.55" r="1.62"/><circle class="cls-10" cx="13.72" cy="38.55" r="1.12"/><path class="cls-2" d="M15.18,37.51c-.2-.28-.15-.4.14-.2a1.5,1.5,0,0,1,0,2.49c-.28.19-.33.08-.14-.21a1.81,1.81,0,0,0,0-2.08Z"/><circle class="cls-9" cx="11.28" cy="32.83" r="1.88"/><path class="cls-8" d="M11.28,34.51A1.88,1.88,0,0,1,9.4,32.73s0,.07,0,.1a1.88,1.88,0,0,0,3.77,0s0-.07,0-.1A1.88,1.88,0,0,1,11.28,34.51Z"/><path class="cls-2" d="M10.23,31.85c.18-.26.14-.37-.13-.19a1.41,1.41,0,0,0,0,2.33c.27.18.31.07.13-.19a1.7,1.7,0,0,1,0-1.95Z"/><circle class="cls-1" cx="11.28" cy="32.83" r="1.27"/><circle class="cls-10" cx="11.28" cy="32.83" r="0.88"/><path class="cls-2" d="M12.42,32c-.15-.22-.12-.31.11-.16a1.18,1.18,0,0,1,0,2c-.22.15-.26.06-.11-.16a1.42,1.42,0,0,0,0-1.63Z"/><circle class="cls-9" cx="13.86" cy="7.43" r="1.88"/><path class="cls-8" d="M13.86,9.11A1.88,1.88,0,0,1,12,7.33s0,.06,0,.1a1.88,1.88,0,1,0,3.77,0s0-.06,0-.1A1.88,1.88,0,0,1,13.86,9.11Z"/><path class="cls-2" d="M12.82,6.45c.18-.27.14-.37-.13-.19a1.41,1.41,0,0,0,0,2.33c.27.18.31.07.13-.19a1.7,1.7,0,0,1,0-1.95Z"/><circle class="cls-1" cx="13.86" cy="7.43" r="1.27"/><circle class="cls-10" cx="13.86" cy="7.43" r="0.88"/><path class="cls-2" d="M15,6.61c-.15-.22-.12-.31.11-.16a1.18,1.18,0,0,1,0,2c-.22.15-.26.06-.11-.16a1.41,1.41,0,0,0,0-1.63Z"/><circle class="cls-9" cx="7.82" cy="53.12" r="1.88"/><path class="cls-8" d="M7.82,54.8A1.88,1.88,0,0,1,5.94,53s0,.07,0,.1a1.88,1.88,0,0,0,3.77,0s0-.07,0-.1A1.89,1.89,0,0,1,7.82,54.8Z"/><path class="cls-2" d="M6.77,52.14c.19-.26.14-.37-.13-.19a1.41,1.41,0,0,0,0,2.33c.27.18.31.07.13-.19a1.7,1.7,0,0,1,0-1.95Z"/><circle class="cls-1" cx="7.82" cy="53.12" r="1.27"/><circle class="cls-10" cx="7.82" cy="53.12" r="0.88"/><path class="cls-2" d="M9,52.3c-.16-.22-.12-.31.11-.16a1.18,1.18,0,0,1,0,2c-.22.15-.26.06-.11-.16A1.42,1.42,0,0,0,9,52.3Z"/></g></g></svg>