<svg xmlns="http://www.w3.org/2000/svg" viewBox="0 0 67.89 82.25"><defs><style>.cls-1{fill:#ffd8b5;}.cls-2,.cls-20{opacity:0.2;}.cls-19,.cls-20,.cls-3{fill:#fff;}.cls-4{fill:#f74910;}.cls-5{fill:#d73f0e;}.cls-6{fill:#3b3c42;}.cls-19,.cls-7{opacity:0.3;}.cls-8{fill:#e1e1e1;}.cls-9{fill:#f0f0f0;}.cls-10{fill:#7f5026;}.cls-11{fill:#9d7851;}.cls-12{fill:#b1b1b1;}.cls-13{fill:#2d2d2d;}.cls-14{opacity:0.15;}.cls-15{fill:#a6a6a6;}.cls-16{fill:#474747;}.cls-17{fill:#5e5e5e;}.cls-18{fill:#63b5e4;}.cls-21{fill:#d0d0d0;}.cls-22{fill:#daf0f5;}.cls-23{fill:#79787f;}.cls-24{fill:#a1a0a8;}.cls-25{fill:#74b8d5;}.cls-26{fill:#4f9ec9;}</style></defs><title>Varlık 2</title><g id="katman_2" data-name="katman 2"><g id="Icons"><rect class="cls-1" x="25.22" y="36.14" width="17.44" height="19.87"/><path class="cls-2" d="M42.66,36.14v2.29c-.33.26-.72.52-1.1.79l-.43.3C39.11,40.89,37,42.2,37,42.2a6.33,6.33,0,0,1-5.76,0s-2.62-1.6-4.8-3.12l-1.17-.84V36.14Z"/><path class="cls-1" d="M46.56,17.95c0,6-.1,12.86-.37,14.12A10.06,10.06,0,0,1,44,35.81a15.32,15.32,0,0,1-1.38,1.13l-1.24.88-.5.35c-2,1.34-4.11,2.63-4.11,2.63a6.38,6.38,0,0,1-5.75,0s-2.64-1.61-4.81-3.13l-1-.74a16,16,0,0,1-1.38-1.12,10.26,10.26,0,0,1-2.15-3.74c-.27-1.26-.37-8.1-.37-14.1,0-3.94.05-7.54.13-9,.11-2.3,1.61-5.28,3.3-5.66l.72-.15,2.34-.51.35-.07a34.14,34.14,0,0,1,11.77,0l.13,0,3.07.66c1.18.27,2.27,1.8,2.85,3.48A8.2,8.2,0,0,1,46.44,9c0,.52.05,1.34.07,2.36C46.54,13.11,46.56,15.45,46.56,17.95Z"/><path class="cls-3" d="M48.57,50V73.19H19.31V50H48.57Z"/><polygon class="cls-4" points="37.57 73.19 30.27 73.19 30.47 71.51 30.48 71.37 30.86 68.12 30.91 67.57 32.24 56.02 32.26 55.83 35.59 55.83 35.61 56.02 36.96 67.91 37.02 68.46 37.38 71.53 37.4 71.65 37.57 73.19"/><polygon class="cls-5" points="35.62 55.84 32.26 55.84 30.27 49.94 33.96 50.03 37.61 49.94 35.62 55.84"/><path class="cls-6" d="M26.25,1.82C21.19,7.66,37.06,16.94,44.74,13c3.8-2,3.25-8.24-.21-10.5C40.73,0,28.95-1.28,26.25,1.82Z"/><path class="cls-6" d="M26.25,1.82c-6.1,1.22-6.47,8.32-5.09,16.63,1.52-4.89,2.93-9.87,5.09-11C28.63,6.19,29.43,1.19,26.25,1.82Z"/><path class="cls-6" d="M46.72,18.46l-.16-.51c-.52-1.73-1-3.51-1.49-5.14a20.37,20.37,0,0,0-1.79-4.49A3.64,3.64,0,0,0,42,7a4.64,4.64,0,0,1-2.05-4.31,1.46,1.46,0,0,1,2-1.34l.09,0a6.7,6.7,0,0,1,5.15,4.91C48,9.29,47.63,13.5,46.72,18.46Z"/><path class="cls-7" d="M44.54,47.88a15.15,15.15,0,0,1-1.72,7.92,8.6,8.6,0,0,1-.9,1.43c-.13-.17-.27-.35-.44-.55a13.83,13.83,0,0,0-.95-1,71,71,0,0,0-6-5.26s0,0,0,0c5.07-1.2,7.36-3.77,8.09-8.6a6.41,6.41,0,0,1,.45.72,10.76,10.76,0,0,1,1.18,3.25A12.12,12.12,0,0,1,44.54,47.88Z"/><path class="cls-3" d="M44.55,48.24a16.88,16.88,0,0,1-.22,1.8,13.89,13.89,0,0,1-.48,2h0a12.33,12.33,0,0,1-1.19,2.71,10.54,10.54,0,0,1-.74,1.12l-.1-.13h0A20.94,20.94,0,0,0,37,51.81c-1-.61-1.85-1.12-2.4-1.43h0a.17.17,0,0,1-.07,0L34,50a10.88,10.88,0,0,0,8.35-8,14.33,14.33,0,0,0,.35-1.66s0,0,0,0l0,0h0a10.46,10.46,0,0,1,1.62,4h0a9.18,9.18,0,0,1,.14.91h0a1.72,1.72,0,0,1,0,.33A15,15,0,0,1,44.55,48.24Z"/><path class="cls-7" d="M33.32,50.37s0,0,0,0a72,72,0,0,0-6,5.33,9.89,9.89,0,0,0-.88,1c-.17.2-.31.38-.44.55a8.78,8.78,0,0,1-.9-1.43,15.14,15.14,0,0,1-1.72-7.92,10.15,10.15,0,0,1,.2-1.76,3.39,3.39,0,0,1,.07-.38,10.7,10.7,0,0,1,1.17-3.25,6.45,6.45,0,0,1,.45-.72C26,46.6,28.25,49.17,33.32,50.37Z"/><path class="cls-8" d="M62.65,50a6.44,6.44,0,0,0-2.18-1.9,3.11,3.11,0,0,0-.55-.27l-.23-.09-4.38-1.71-2.06-.81-1.78-.6-3.75-.8-.32-.07-2-.41-.9,1.84-.07.13h0l-.19.38,0,.09-.33.66-.46,1.24c0,.36,0,.72-.07,1.09s-.08.8-.13,1.21c0,.23-.07.46-.11.7s-.08.47-.13.71-.1.47-.16.72-.1.48-.18.73c-.14.58-.31,1.16-.5,1.77l-.34,1h0a2.55,2.55,0,0,0-.1.32c-.09.22-.17.44-.24.67-.34,1-.7,2-1.08,3-.17.45-.34.9-.51,1.36-1,2.5-2,4.86-2.92,6.87h0c-.12.28-.26.54-.38.8l-.36.74a30.63,30.63,0,0,1-2,3.49c-.07.08-.12.16-.19.23L33.89,73a46.56,46.56,0,0,1-3-5.39A102.47,102.47,0,0,1,26.4,56.68c-.07-.22-.15-.45-.22-.67s-.07-.21-.11-.32h0c-.11-.36-.23-.69-.34-1a.11.11,0,0,1,0-.05c-.2-.58-.36-1.16-.49-1.71A25.22,25.22,0,0,1,24.65,50c-.07-.49-.12-1-.16-1.47v0l-.56-1.44h0l-.39-1-.14-.33v0l-.86-2.21h0l-.05-.14h0l-2,.42-.31.06h0l-3.72.79-1.8.6L8.2,47.78A6.59,6.59,0,0,0,4,53.64L0,82.25H67.89l-4-28.61A6.26,6.26,0,0,0,62.65,50Z"/><polygon class="cls-9" points="30.66 82.25 34.08 82.25 34.08 73.19 30.66 70.86 30.66 82.25"/><path class="cls-3" d="M25.23,40.36A11.05,11.05,0,0,0,33.94,50s-6.29,3.39-8,5.8C22.82,51.72,22.33,44.47,25.23,40.36Z"/><rect class="cls-3" x="44.94" y="70.6" width="12.91" height="3.65"/><rect class="cls-3" x="10.03" y="70.6" width="12.91" height="3.65"/><path class="cls-10" d="M32.37,77.15a1.24,1.24,0,1,0,1.23,1.23A1.23,1.23,0,0,0,32.37,77.15Zm.48,1.49a.26.26,0,0,1-.26-.26.27.27,0,0,1,.26-.26.26.26,0,0,1,.26.26A.25.25,0,0,1,32.85,78.64Zm-1,0a.25.25,0,0,1-.25-.26.26.26,0,1,1,.51,0A.25.25,0,0,1,31.88,78.64Z"/><path class="cls-11" d="M32.37,77a1.4,1.4,0,1,0,1.4,1.4A1.41,1.41,0,0,0,32.37,77Zm0,2.48a1.07,1.07,0,1,1,1.06-1.07A1.07,1.07,0,0,1,32.37,79.46Z"/><path class="cls-12" d="M32.84,78.51h-1a.12.12,0,0,1-.12-.12.12.12,0,0,1,.12-.12h1a.12.12,0,0,1,.12.12A.12.12,0,0,1,32.84,78.51Z"/><path class="cls-13" d="M37.35,18.19a27.5,27.5,0,0,1-3.41.89,27.4,27.4,0,0,1-3.41-.89,16.75,16.75,0,0,0-7.73.44v1.92c.38.17.72,3.06,1.06,4A2.55,2.55,0,0,0,25.25,26a9.44,9.44,0,0,0,4.92.13,2.65,2.65,0,0,0,1.75-1.06c.7-1,1-4.05,2-4.05s1.32,3.05,2,4.05a2.65,2.65,0,0,0,1.75,1.06A9.43,9.43,0,0,0,42.63,26,2.55,2.55,0,0,0,44,24.52c.34-.91.68-3.8,1.06-4V18.63A16.75,16.75,0,0,0,37.35,18.19Zm-4.84,3.23a11.82,11.82,0,0,1-.82,2.75,2.5,2.5,0,0,1-2.07,1.58,13.91,13.91,0,0,1-3.55,0,2.56,2.56,0,0,1-1.71-1.44,11.13,11.13,0,0,1-.57-3.48c0-1.37,1.1-1.69,2-1.94a16.39,16.39,0,0,1,5.57.38A1.94,1.94,0,0,1,32.51,21.42Zm11,2.89a2.55,2.55,0,0,1-1.71,1.44,13.93,13.93,0,0,1-3.55,0,2.5,2.5,0,0,1-2.07-1.58,11.83,11.83,0,0,1-.82-2.75,1.94,1.94,0,0,1,1.12-2.15,16.39,16.39,0,0,1,5.57-.38c.92.25,2,.57,2,1.94A11.09,11.09,0,0,1,43.52,24.31Z"/><path class="cls-14" d="M27.43,76.27,24.81,62.45l.33-.05L24,56.28a4.87,4.87,0,0,0-.71-1.78l0,0a5.49,5.49,0,0,0-.73-.93,0,0,0,0,1,0,0,5.49,5.49,0,0,0-3.8-1.66H18l-.11-.72-.32-2H17.2v-.65a7.57,7.57,0,0,1,.58-2.9.08.08,0,0,0,0,0s0,0,0,0c.09-.2.17-.38.27-.57l.06-.11c.1-.16.2-.34.31-.5l.1-.13,0,0a.9.9,0,0,0-.47-.58h0a1.22,1.22,0,0,0-.27-.13,1.7,1.7,0,0,0-.49-.1,8.94,8.94,0,0,0-1.21,2.46,8.51,8.51,0,0,0-.38,2c0,.19,0,.37,0,.56v.16h0v.54h-.36v.07L15,51.16l-.11.72h-.77a5.56,5.56,0,0,0-5.28,4.4l-1,5.37,0,.11-.11.63.33.05L5.49,76.27a3.81,3.81,0,0,0,.3,2h0a4,4,0,0,0,2.12,2.16,10.3,10.3,0,0,0,3.6.63v.38h1l1.39.21a.46.46,0,0,0,.54-.47V80.17A.45.45,0,0,0,14,79.7a.41.41,0,0,0-.16,0l-1.39.22h-1v.37h-.38a8.79,8.79,0,0,1-2.91-.56,3.08,3.08,0,0,1-1.37-1.19s0,0,0,0a3.31,3.31,0,0,1-.29-.59s0,0,0,0a3,3,0,0,1-.22-1.53L8.92,62.6l.32.05.23-1.26a7.88,7.88,0,0,1,.71-.76A11.32,11.32,0,0,1,12,59.13a8.46,8.46,0,0,1,4.4-1.51,8.46,8.46,0,0,1,4.41,1.51,11.32,11.32,0,0,1,1.87,1.5c.13.12.26.26.39.39l.32.36.09.48v0l.14.76h.09l.23,0,2.62,13.79a2.94,2.94,0,0,1-.14,1.36.21.21,0,0,0,0,.08,3.25,3.25,0,0,1-1.73,1.9,7.85,7.85,0,0,1-1.17.35l-.09,0a10.65,10.65,0,0,1-2,.2v-.37h-1l-.38-.07-1-.15a.46.46,0,0,0-.54.47v1.07a.46.46,0,0,0,.54.47l1.38-.21h1v-.38A10.39,10.39,0,0,0,25,80.49,4.13,4.13,0,0,0,27.43,76.27ZM23.07,60.65v0a10.8,10.8,0,0,0-2-1.85,9.45,9.45,0,0,0-1.89-1.08l-.1,0a7.15,7.15,0,0,0-2.67-.6,8.17,8.17,0,0,0-4.64,1.72A11.17,11.17,0,0,0,9.53,61l.19-1,0-.22,0-.26.53-3a4,4,0,0,1,3.82-3.18h4.61A4.05,4.05,0,0,1,22,55.15s0,0,0,0a3.66,3.66,0,0,1,.56,1.35l.76,4.25v.07l0,.17a2,2,0,0,0-.2-.24Z"/><path class="cls-15" d="M23.85,61.81a7.47,7.47,0,0,0-1.49-1.9,11.75,11.75,0,0,0-1.88-1.5,8.45,8.45,0,0,0-4.41-1.52,8.45,8.45,0,0,0-4.41,1.52,11.65,11.65,0,0,0-1.88,1.5,7.4,7.4,0,0,0-1.49,1.9,8.85,8.85,0,0,1,3.12-3.75,8.2,8.2,0,0,1,4.65-1.72,8.21,8.21,0,0,1,4.65,1.72A8.86,8.86,0,0,1,23.85,61.81Z"/><path class="cls-2" d="M22.37,59.74a11.81,11.81,0,0,0-1.88-1.5,8.46,8.46,0,0,0-4.41-1.52,8.47,8.47,0,0,0-4.41,1.52,11.76,11.76,0,0,0-1.88,1.5A8.39,8.39,0,0,0,8.68,61a5.89,5.89,0,0,0-.37.79,7.4,7.4,0,0,1,1.49-1.9,11.65,11.65,0,0,1,1.88-1.5,8.45,8.45,0,0,1,4.41-1.52,8.45,8.45,0,0,1,4.41,1.52,11.75,11.75,0,0,1,1.88,1.5,7.47,7.47,0,0,1,1.49,1.9,6.17,6.17,0,0,0-.38-.79A8.42,8.42,0,0,0,22.37,59.74Z"/><path class="cls-16" d="M13.47,79a.46.46,0,0,1,.54.47v1.07a.46.46,0,0,1-.54.47l-1.38-.21V79.2Z"/><rect class="cls-17" x="11.12" y="79.2" width="0.96" height="1.58"/><path class="cls-15" d="M7.75,61.63l.82.12L5.93,75.67A3.32,3.32,0,0,0,7.83,79a9.5,9.5,0,0,0,3.29.57v.83a10.34,10.34,0,0,1-3.6-.63,4.14,4.14,0,0,1-2.41-4.22Z"/><path class="cls-16" d="M18.69,79a.46.46,0,0,0-.54.47v1.07a.46.46,0,0,0,.54.47l1.38-.21V79.2Z"/><rect class="cls-17" x="20.07" y="79.2" width="0.96" height="1.58"/><path class="cls-15" d="M24.41,61.63l2.64,13.92a4.14,4.14,0,0,1-2.41,4.23,10.36,10.36,0,0,1-3.6.63v-.83A9.49,9.49,0,0,0,24.33,79a3.32,3.32,0,0,0,1.9-3.34L23.6,61.75Z"/><path class="cls-18" d="M18.1,43.62s0,0,0,0l-.05.08a7.05,7.05,0,0,0-.36.61c-.11.21-.22.42-.3.64a6.37,6.37,0,0,0-.29.87,3.84,3.84,0,0,0-.12.48,7.58,7.58,0,0,0-.15,1.5v3.63H15.34V47.8a8.62,8.62,0,0,1,.26-2.14,8.48,8.48,0,0,1,.85-2.19l.11,0a2.75,2.75,0,0,1,.77-.05,1.7,1.7,0,0,1,.49.1A1.22,1.22,0,0,1,18.1,43.62Z"/><path class="cls-19" d="M17.82,43.48a1.22,1.22,0,0,1,.27.13.19.19,0,0,0,0,.08,4,4,0,0,0-.36.61,5.08,5.08,0,0,0-.3.64,6.37,6.37,0,0,0-.29.87,3.84,3.84,0,0,0-.12.48,7.58,7.58,0,0,0-.15,1.5v3.63h-.37V47.8a7.08,7.08,0,0,1,.26-1.93A7,7,0,0,1,17.82,43.48Z"/><rect class="cls-2" x="15.34" y="47.9" width="1.49" height="3.45"/><polygon class="cls-18" points="14.98 48.45 17.18 48.45 17.73 51.91 14.43 51.91 14.98 48.45"/><polygon class="cls-19" points="17.49 51.91 16.93 48.45 16.16 48.45 16.71 51.91 17.49 51.91"/><path class="cls-19" d="M8.34,61.75,5.71,75.67A3.32,3.32,0,0,0,7.61,79a9.5,9.5,0,0,0,3.29.57h.22A9.5,9.5,0,0,1,7.83,79a3.32,3.32,0,0,1-1.9-3.34L8.56,61.75Z"/><path class="cls-19" d="M26.83,75.55a4.14,4.14,0,0,1-2.42,4.23A10.11,10.11,0,0,1,21,80.4h0a10.36,10.36,0,0,0,3.6-.63,4.14,4.14,0,0,0,2.41-4.23L24.41,61.63l-.22,0Z"/><path class="cls-18" d="M13.77,51.16h4.61a5.57,5.57,0,0,1,5.27,4.41l1.1,6.11-1.46.27-1.1-6.11a4,4,0,0,0-3.81-3.18H13.77A4,4,0,0,0,10,55.83l-1.1,6.11L7.4,61.68l1.1-6.11A5.57,5.57,0,0,1,13.77,51.16Z"/><path class="cls-19" d="M9.74,55.83,8.65,61.9l.21,0L10,55.83a4,4,0,0,1,3.81-3.18h-.22A4,4,0,0,0,9.74,55.83Z"/><path class="cls-19" d="M23.44,55.57l1.1,6.11-1.25.23v0l1.46-.27-1.1-6.11a5.57,5.57,0,0,0-5.27-4.41h-.22A5.57,5.57,0,0,1,23.44,55.57Z"/><path class="cls-14" d="M54.81,65.49a3.18,3.18,0,0,1-.08.73.79.79,0,0,1-.05.17,2.79,2.79,0,0,1-.16.51,1.55,1.55,0,0,1-.08.14,4.16,4.16,0,0,1-.27.48.46.46,0,0,1-.1.11,3.33,3.33,0,0,1-.36.42,3.48,3.48,0,0,1-2.06,1,2.4,2.4,0,0,1-.4,0,3.56,3.56,0,0,1-2.65-6l0,0,.06-.05a3.86,3.86,0,0,1,.37-.34l.16-.14a3.58,3.58,0,0,1,.44-.26l.2-.11a3.87,3.87,0,0,1,.5-.16,1.33,1.33,0,0,1,.2-.06h0V49.65a9.76,9.76,0,0,0-.8-3.91A7.17,7.17,0,0,0,48.59,44a1.06,1.06,0,0,1,.47-.39,1.92,1.92,0,0,1,1-.17,7.07,7.07,0,0,1,.55.83,9,9,0,0,1,.72,1.54,11,11,0,0,1,.7,3.9V62a3,3,0,0,1,.45.13,2.1,2.1,0,0,1,.37.14l.07,0A3.56,3.56,0,0,1,54.81,65.49Z"/><path class="cls-18" d="M52.8,49.65V63.38H51.32V49.64a9.63,9.63,0,0,0-.74-3.76,6.76,6.76,0,0,0-1.51-2.32,1.92,1.92,0,0,1,1-.17,2.53,2.53,0,0,1,.48.05h0a2.17,2.17,0,0,1,.47.15h0a8.27,8.27,0,0,1,.61,1h0c0,.11.1.21.15.32a2.92,2.92,0,0,1,.15.32c.07.15.12.29.17.45s.11.31.15.46a9.23,9.23,0,0,1,.4,1.68A11.08,11.08,0,0,1,52.8,49.65Z"/><circle class="cls-16" cx="52.06" cy="65.49" r="3.57"/><path class="cls-20" d="M55.4,65.73a3.57,3.57,0,0,0-6-2.59,3.57,3.57,0,1,1,5.14,4.94A3.55,3.55,0,0,0,55.4,65.73Z"/><rect class="cls-12" x="51.31" y="59.44" width="1.49" height="4.54"/><path class="cls-19" d="M52.8,49.65V63.38h-.37V49.65a11.12,11.12,0,0,0-.76-4.11,8.78,8.78,0,0,0-1.14-2.09,2.17,2.17,0,0,1,.47.15,10.39,10.39,0,0,1,.63,1s0,0,0,0c.1.21.21.43.29.64a7.91,7.91,0,0,1,.34.89,11.44,11.44,0,0,1,.4,1.68A11.08,11.08,0,0,1,52.8,49.65Z"/><path class="cls-2" d="M51.31,63.1V64H52.8V63.1a2.33,2.33,0,0,0-1.49,0Z"/><circle class="cls-12" cx="52.06" cy="65.49" r="2.2"/><path class="cls-19" d="M53.6,66.34a2.2,2.2,0,0,0-2.92-2.1,1.86,1.86,0,1,1,2.9,2.34C53.58,66.5,53.6,66.42,53.6,66.34Z"/><path class="cls-7" d="M34.08,73.19C24.07,69.14,17.46,61.64,15,57.37c1.53-.9,4.56-2.43,4.56-2.43A38.55,38.55,0,0,0,15,53.42c.21-2.22,2.23-6.43,5.14-9.54h0l.31-.07,2-.41.07.14v0l.9,1.82.18.38.37.75c0,.2,0,.41-.06.61,0,0,0,0,0,0A18.36,18.36,0,0,0,24,52a17.89,17.89,0,0,0,.64,2.67c.13.38.25.78.39,1.16A79.21,79.21,0,0,0,33.9,72.95Z"/><path class="cls-21" d="M34.08,73.19a39.06,39.06,0,0,1-18-15.82c1.52-.9,4.56-2.43,4.56-2.43a38.6,38.6,0,0,0-4.56-1.52,20.38,20.38,0,0,1,4.4-9.62h0a10.71,10.71,0,0,1,4.71-3.43s0,0,0,.07c-.17.69-.3,1.38-.41,2.06a24.11,24.11,0,0,0-.3,6.06h0a27.45,27.45,0,0,0,1.24,6.09l.34,1,.34,1c2.39,6.88,5.77,13.8,7.5,16.27Z"/><path class="cls-7" d="M48.57,55.09c.79.39,3,1.54,4.29,2.28a32.43,32.43,0,0,1-4.29,5.71c-.57.63-1.19,1.26-1.87,1.9a40.21,40.21,0,0,1-9.31,6.67c-1.06.55-2.16,1.07-3.32,1.54.06-.07.11-.15.19-.23A51.73,51.73,0,0,0,37,68.47h0a80.89,80.89,0,0,0,5.8-12.65c.13-.39.27-.78.39-1.16A17.92,17.92,0,0,0,43.85,52h0a18.39,18.39,0,0,0,.2-2,21.09,21.09,0,0,0-.15-3.54l.32-.66h0l0-.09.19-.38h0l.07-.13.9-1.84,2,.41.32.07a22.82,22.82,0,0,1,3,4,15.29,15.29,0,0,1,2.19,5.54,33.14,33.14,0,0,0-4.29,1.42l-.27.11Z"/><path class="cls-21" d="M48.57,55.64c1,.51,2.36,1.22,3.22,1.73a35.19,35.19,0,0,1-3.22,4.73c-.56.7-1.18,1.43-1.87,2.15a38.63,38.63,0,0,1-9.32,7.28c-1,.57-2.15,1.13-3.31,1.65.06-.07.11-.15.19-.23a30.63,30.63,0,0,0,2-3.49l.36-.74c.12-.26.26-.52.38-.8h0c.94-2,2-4.37,2.92-6.87.18-.45.35-.9.51-1.36.38-1,.74-2,1.08-3,.07-.22.15-.45.24-.67a2.55,2.55,0,0,1,.1-.32h0l.34-1c.2-.6.36-1.19.5-1.77.07-.24.13-.49.18-.73s.11-.48.16-.72.09-.47.13-.71.08-.47.11-.7c.05-.41.11-.81.13-1.21s.06-.73.07-1.09,0-1,0-1.44a23.2,23.2,0,0,0-.22-2.94h0c0-.28-.08-.56-.13-.85-.11-.68-.24-1.37-.41-2.06h0s0,0,0,0a10.69,10.69,0,0,1,4.71,3.43,20.14,20.14,0,0,1,2.75,4.34,16.87,16.87,0,0,1,1.65,5.29,27.49,27.49,0,0,0-3.22,1c-.76.28-1.33.51-1.33.51Z"/><path class="cls-22" d="M53.49,72.23H41.24a.59.59,0,0,0-.6.59v7.32a.59.59,0,0,0,.6.59H53.49a.59.59,0,0,0,.6-.59V72.82A.59.59,0,0,0,53.49,72.23Zm-4.84,1.45H46.08v-.84h2.57Z"/><path class="cls-23" d="M53.49,80.93H41.24a.79.79,0,0,1-.79-.79V72.82a.79.79,0,0,1,.79-.79H53.49a.79.79,0,0,1,.79.79v7.32A.79.79,0,0,1,53.49,80.93Zm-12.26-8.5a.4.4,0,0,0-.4.39v7.32a.4.4,0,0,0,.4.4H53.49a.4.4,0,0,0,.4-.4V72.82a.4.4,0,0,0-.4-.39Z"/><rect class="cls-4" x="48.69" y="74.52" width="4.21" height="0.78"/><rect class="cls-24" x="47.36" y="76.25" width="5.53" height="0.62"/><rect class="cls-24" x="47.36" y="77.75" width="5.53" height="0.62"/><rect class="cls-24" x="47.36" y="79.25" width="5.53" height="0.62"/><rect class="cls-25" x="41.99" y="74.52" width="4.39" height="5.47"/><polygon class="cls-7" points="48.23 73.22 48.77 72.03 48.23 72.03 48.23 73.22"/><polygon class="cls-26" points="48.23 73.22 46.5 73.22 45.95 69.06 48.77 69.06 48.23 73.22"/><rect class="cls-4" x="47.36" y="74.52" width="1.32" height="1.33"/><rect class="cls-3" x="47.88" y="74.72" width="0.3" height="0.91"/><rect class="cls-3" x="47.57" y="75.03" width="0.91" height="0.3"/></g></g></svg>