<svg xmlns="http://www.w3.org/2000/svg" viewBox="0 0 53.82 57.51"><defs><style>.cls-1{fill:#b1b1b1;}.cls-2,.cls-7{opacity:0.2;}.cls-3{fill:#474747;}.cls-4{fill:#5e5e5e;}.cls-5{fill:#4fa648;}.cls-6,.cls-7{fill:#fff;}.cls-6{opacity:0.3;}.cls-8{fill:#d0d0d0;}</style></defs><title>Varlık 5</title><g id="katman_2" data-name="katman 2"><g id="Icons"><path class="cls-1" d="M23.19,29.09a9.16,9.16,0,0,1-1.84,2.34A14.39,14.39,0,0,1,19,33.28a10.45,10.45,0,0,1-5.45,1.87,10.45,10.45,0,0,1-5.45-1.87,14.5,14.5,0,0,1-2.32-1.85A9.19,9.19,0,0,1,4,29.09a10.94,10.94,0,0,0,3.86,4.63,10.13,10.13,0,0,0,5.74,2.12,10.13,10.13,0,0,0,5.74-2.12A10.94,10.94,0,0,0,23.19,29.09Z"/><path class="cls-2" d="M21.35,31.65A14.37,14.37,0,0,1,19,33.5a10.46,10.46,0,0,1-5.45,1.87A10.45,10.45,0,0,1,8.14,33.5a14.52,14.52,0,0,1-2.32-1.85,10.25,10.25,0,0,1-1.37-1.59,7.36,7.36,0,0,1-.46-1,9.19,9.19,0,0,0,1.84,2.34,14.5,14.5,0,0,0,2.32,1.85,10.45,10.45,0,0,0,5.45,1.87A10.45,10.45,0,0,0,19,33.28a14.39,14.39,0,0,0,2.32-1.85,9.16,9.16,0,0,0,1.84-2.34,7.77,7.77,0,0,1-.47,1A10.3,10.3,0,0,1,21.35,31.65Z"/><path class="cls-3" d="M10.37,2.48A.57.57,0,0,0,11,1.9V.59A.57.57,0,0,0,10.37,0L8.66.27v2Z"/><rect class="cls-4" x="7.47" y="0.27" width="1.19" height="1.96"/><path class="cls-1" d="M3.3,29.31l1-.15L1.05,6.59A4.09,4.09,0,0,1,3.4,2.46a11.75,11.75,0,0,1,4.07-.7v-1A12.76,12.76,0,0,0,3,1.51,5.11,5.11,0,0,0,0,6.73Z"/><path class="cls-3" d="M16.81,2.48a.57.57,0,0,1-.67-.58V.59A.57.57,0,0,1,16.81,0l1.71.26v2Z"/><rect class="cls-4" x="18.52" y="0.27" width="1.19" height="1.96"/><path class="cls-1" d="M23.88,29.31,27.14,6.73a5.11,5.11,0,0,0-3-5.22A12.77,12.77,0,0,0,19.71.74v1a11.74,11.74,0,0,1,4.07.7,4.1,4.1,0,0,1,2.35,4.13L22.87,29.16Z"/><path class="cls-5" d="M12.67,41.91v4.48A11.13,11.13,0,0,0,23.79,57.51H24A11.13,11.13,0,0,0,35.14,46.39V13.51c0-5.12,3-9.28,6.68-9.28s6.67,4.16,6.67,9.28v8.88h1.84V13.51c0-6.14-3.82-11.12-8.51-11.12s-8.52,5-8.52,11.12V46.39A9.29,9.29,0,0,1,24,55.67h-.22a9.29,9.29,0,0,1-9.29-9.29V41.91Z"/><path class="cls-6" d="M34.69,46.39V13.51c0-5.12,3-9.29,6.68-9.29l.23,0c-3.58.17-6.45,4.26-6.45,9.27V46.39A11.13,11.13,0,0,1,24,57.51h-.34A11.13,11.13,0,0,0,34.69,46.39Z"/><path class="cls-6" d="M23.56,55.67h-.23a9.3,9.3,0,0,1-9.28-9.29V41.9h.45v4.48a9.29,9.29,0,0,0,9.17,9.28Z"/><circle class="cls-3" cx="49.41" cy="25" r="4.41"/><path class="cls-7" d="M53.54,25.29a4.4,4.4,0,0,0-7.44-3.2,4.41,4.41,0,1,1,6.34,6.1A4.38,4.38,0,0,0,53.54,25.29Z"/><rect class="cls-8" x="48.49" y="17.53" width="1.84" height="5.61"/><path class="cls-6" d="M41.59,2.41h.23c4.69,0,8.51,5,8.51,11.12v8.88h-.45V13.51C49.88,7.48,46.18,2.57,41.59,2.41Z"/><rect class="cls-2" x="12.67" y="42" width="1.84" height="4.26"/><polygon class="cls-5" points="12.23 45.59 14.95 45.59 15.63 41.32 11.55 41.32 12.23 45.59"/><polygon class="cls-6" points="15.32 41.32 14.64 45.59 13.69 45.59 14.37 41.32 15.32 41.32"/><path class="cls-6" d="M4,29.16.78,6.59A4.1,4.1,0,0,1,3.13,2.46a11.73,11.73,0,0,1,4.07-.7h.27a11.75,11.75,0,0,0-4.07.7A4.09,4.09,0,0,0,1.05,6.59L4.31,29.16Z"/><path class="cls-6" d="M26.86,6.73a5.11,5.11,0,0,0-3-5.22A12.47,12.47,0,0,0,19.71.74h0a12.77,12.77,0,0,1,4.44.77,5.11,5.11,0,0,1,3,5.22L23.88,29.31l-.27,0Z"/><path class="cls-2" d="M48.49,22v1.1h1.84V22a2.9,2.9,0,0,0-1.84,0Z"/><path class="cls-5" d="M10.74,42.24h5.7a6.87,6.87,0,0,0,6.51-5.44l1.36-7.54-1.81-.33-1.36,7.54a5,5,0,0,1-4.71,3.93h-5.7A5,5,0,0,1,6,36.47L4.67,28.93l-1.81.33L4.23,36.8A6.87,6.87,0,0,0,10.74,42.24Z"/><circle class="cls-8" cx="49.41" cy="25" r="2.72"/><path class="cls-6" d="M51.31,26a2.72,2.72,0,0,0-3.61-2.6,2.3,2.3,0,1,1,3.58,2.89A2.8,2.8,0,0,0,51.31,26Z"/><path class="cls-6" d="M5.76,36.47,4.41,29l.26,0L6,36.47a5,5,0,0,0,4.71,3.93h-.27A5,5,0,0,1,5.76,36.47Z"/><path class="cls-6" d="M22.68,36.8,24,29.25,22.5,29v0l1.81.33L22.95,36.8a6.87,6.87,0,0,1-6.51,5.44h-.27A6.87,6.87,0,0,0,22.68,36.8Z"/></g></g></svg>