<svg xmlns="http://www.w3.org/2000/svg" viewBox="0 0 42.35 69.48"><defs><style>.cls-1{fill:#74b8d5;}.cls-11,.cls-2{fill:#d5d4d9;}.cls-3{fill:#63b5e4;}.cls-4{fill:#b2e3f8;}.cls-5{fill:#86c7e4;}.cls-6{fill:#a1a0a8;}.cls-7{fill:#7a7a7a;}.cls-10,.cls-8{fill:#fff;}.cls-11,.cls-8{opacity:0.3;}.cls-9{fill:#474747;}.cls-10{opacity:0.5;}.cls-12{fill:#f7d458;}.cls-13{fill:#868a95;}.cls-14{fill:#5c6cbf;}.cls-15{opacity:0.2;}</style></defs><title>Varlık 3</title><g id="katman_2" data-name="katman 2"><g id="Icons"><rect class="cls-1" x="3.15" y="68.22" width="9.06" height="1.27"/><polygon class="cls-2" points="9.42 19.3 9.42 18.25 5.94 18.25 5.94 19.3 3.56 20.07 3.56 53.05 11.81 53.05 11.81 20.07 9.42 19.3"/><polygon class="cls-3" points="3.96 37.09 3.96 20.35 6.35 19.57 6.35 18.25 9.02 18.25 9.02 19.57 11.4 20.35 11.4 37.09 3.96 37.09"/><rect class="cls-4" x="4.32" y="42.05" width="6.73" height="26.17"/><rect class="cls-5" x="6.73" y="42.05" width="1.91" height="26.17"/><rect class="cls-1" y="53.05" width="15.36" height="1.27"/><path class="cls-6" d="M7.26,13V1.65L7.68,0,8.1,1.65V13C8,13.78,7.32,13.78,7.26,13Z"/><polygon class="cls-7" points="6.04 13.7 7.68 12.03 9.32 13.7 9.32 18.25 6.04 18.25 6.04 13.7"/><polygon class="cls-8" points="7.68 12.03 6.4 13.7 6.4 18.25 7.21 18.25 7.21 13.7 7.68 12.03"/><rect class="cls-9" x="3.68" y="37.09" width="8" height="1.65"/><rect class="cls-9" x="3.68" y="40.4" width="8" height="1.65"/><rect class="cls-7" x="4.41" y="38.74" width="6.55" height="1.65"/><polygon class="cls-10" points="6.04 20.69 6.8 19.91 6.8 18.25 5.94 18.25 5.94 19.3 4.37 20.08 4.37 53.04 6.04 53.05 6.04 20.69"/><rect class="cls-7" x="5.44" y="18.05" width="4.49" height="0.39"/><rect class="cls-11" x="3.55" y="37.09" width="8.25" height="15.96"/><path class="cls-4" d="M25.89,50.25c-.36-1-1.67-2.51-1.67-3.53s1-2.14,1-2.87-.91-6.07-1-7.25S24,34,22.2,34s-1.9,1.45-2,2.63-1,6.52-1,7.25,1,1.9,1,2.87-1.31,2.54-1.67,3.53,0,15.49,0,16.94,1.79,2.3,3.7,2.3,3.69-.85,3.69-2.3S26.26,51.24,25.89,50.25Z"/><path class="cls-12" d="M25.42,64.82c0,1.2,0,2.07,0,2.37,0,1.16-1.64,1.78-3.19,1.78S19,68.35,19,67.19c0-.3,0-1.17,0-2.37-.07-3.52-.23-12.59,0-14.21h6.51C25.66,52.23,25.49,61.3,25.42,64.82Z"/><path class="cls-8" d="M20.16,67.19c0-1.45-.25-15.95,0-16.94s1.17-2.51,1.17-3.53-.68-2.14-.68-2.87.63-6.07.7-7.25.13-2.42,1.17-2.59a1.76,1.76,0,0,0-.26,0c-1.49,0-1.57,1.45-1.64,2.63s-.82,6.52-.82,7.25.8,1.9.8,2.87-1.08,2.54-1.38,3.53,0,15.49,0,16.94,1.48,2.3,3,2.3h.32A2.36,2.36,0,0,1,20.16,67.19Z"/><path class="cls-8" d="M25.27,49.65c0,.88-1.55,1.4-3.2,1.4s-1.64.68,0,.68,3.2-.51,3.2-1.4Z"/><path class="cls-4" d="M42.17,66.65c0,2.14-1.91,2.83-6.47,2.83s-6.48-.7-6.48-2.83c0-.85-.41-15.55,0-16.74.21-.59,1.9-2.13,2.13-2.65a3.68,3.68,0,0,0,.22-1l0-.59c0-.62,0-1.14,0-1.14h8.12s0,.53,0,1.14c0,.2,0,.39,0,.59a4,4,0,0,0,.22,1c.23.52,1.92,2.07,2.12,2.65C42.58,51.09,42.17,65.8,42.17,66.65Z"/><path class="cls-3" d="M41.69,65.13c0,.83,0,1.38,0,1.52,0,1.47-1,2.33-6,2.33s-6-.86-6-2.33c0-.14,0-.7,0-1.52-.2-9.36-.2-14.42,0-15a5.48,5.48,0,0,1,.75-.95h10.5a4.82,4.82,0,0,1,.75.95C41.9,50.71,41.9,55.77,41.69,65.13Z"/><path class="cls-8" d="M35.69,50.54c-3.27,0-4,.86,0,.86S41.4,51,41.4,49.64c0,0,0-.07,0-.13C40.75,50.27,39,50.54,35.69,50.54Z"/><path class="cls-8" d="M32.24,66.65c0-.85-.29-15.55,0-16.73.14-.59,1.33-2.13,1.49-2.66a14.34,14.34,0,0,0,.2-2.75H32.35a12,12,0,0,1-.24,2.75c-.2.53-1.62,2.07-1.8,2.66-.35,1.18,0,15.88,0,16.73,0,2.14,1.61,2.84,5.49,2.84h.54C33.46,69.41,32.24,68.69,32.24,66.65Z"/><path class="cls-13" d="M40.53,45.64H30.86a.71.71,0,0,1-.7-.73V43.83H41.22v1.09A.71.71,0,0,1,40.53,45.64Z"/><path class="cls-14" d="M41.4,43.83H30a.71.71,0,0,1-.7-.73v-1.5a.71.71,0,0,1,.7-.72H41.4a.71.71,0,0,1,.7.72v1.5A.71.71,0,0,1,41.4,43.83Z"/><path class="cls-8" d="M33.57,44.92V43.83h-.12c-.25,0-.45-.33-.45-.73v-1.5c0-.4.2-.72.45-.72H31.32a.66.66,0,0,0-.58.72v1.5a.66.66,0,0,0,.58.73h.15v1.09a.66.66,0,0,0,.58.73h2C33.78,45.64,33.57,45.32,33.57,44.92Z"/><path class="cls-15" d="M39.83,46.23H31.56l0-.59h8.18C39.79,45.84,39.8,46,39.83,46.23Z"/></g></g></svg>