<svg xmlns="http://www.w3.org/2000/svg" viewBox="0 0 73.32 62.18"><defs><style>.cls-1{fill:#63b5e4;}.cls-2{fill:#2181b8;}.cls-3{opacity:0.2;}.cls-4{fill:#d0d0d0;}.cls-5{fill:#f1f1f1;}.cls-6{fill:#e2e2e2;}.cls-7{fill:#c5c6cb;}.cls-8{fill:#fff;opacity:0.3;}.cls-9{fill:#ffa530;}.cls-10{fill:#d8d8d8;}.cls-11{fill:#868a95;}.cls-12{fill:#b1b1b1;}</style></defs><title>Varlık 4</title><g id="katman_2" data-name="katman 2"><g id="Icons"><rect class="cls-1" x="35.01" y="38.34" width="38.12" height="23.66" rx="3.63" ry="3.63"/><path class="cls-2" d="M69.51,62.18H38.65a3.82,3.82,0,0,1-3.81-3.81V42a3.82,3.82,0,0,1,3.81-3.81H69.51A3.82,3.82,0,0,1,73.32,42v16.4A3.82,3.82,0,0,1,69.51,62.18ZM35.19,58.37a3.45,3.45,0,0,0,3.45,3.45H69.51A3.45,3.45,0,0,0,73,58.37V42a3.45,3.45,0,0,0-3.45-3.45H38.65A3.46,3.46,0,0,0,35.19,42Z"/><path class="cls-3" d="M37.74,42.69a3.9,3.9,0,0,1,.28-.31l.23-.21.08-.06.08-.07a3.6,3.6,0,0,1,5,5l-.06.08-.06.08-.21.23a4,4,0,0,1-.31.28,3.6,3.6,0,0,1-5.05-5.06Z"/><path class="cls-4" d="M38.15,42.51l.61,0,4.17,4.18,0,.61.2-.22.06-.08L43.3,47a3.41,3.41,0,0,0-4.78-4.78l-.08.06-.08.06Z"/><path class="cls-5" d="M38.15,42.51a3.77,3.77,0,0,0-.26.3,3.42,3.42,0,0,0,4.8,4.8,3.82,3.82,0,0,0,.29-.26l0-.61-4.17-4.18Z"/><path class="cls-6" d="M38.45,42.81a3,3,0,0,0,4,4.46,2.51,2.51,0,0,0,.26-.23l.18-.19.05-.07.06-.07a3,3,0,0,0-4.19-4.19l-.07.05-.07.05Z"/><polygon class="cls-7" points="38.15 42.51 38.19 43.12 42.37 47.29 42.98 47.34 42.93 46.73 38.75 42.55 38.15 42.51"/><polygon class="cls-3" points="42.81 46.86 38.63 42.67 38.15 42.51 38.75 42.55 42.93 46.74 42.98 47.34 42.81 46.86"/><path class="cls-8" d="M42.26,42.45A4.36,4.36,0,0,0,38.36,47l-.13-.11-.18-.19L38,46.67l-.06-.07a3,3,0,0,1,4.22-4.22l.07.05Z"/><path class="cls-3" d="M46.75,42.69a3.62,3.62,0,0,1,.27-.31l.23-.21.08-.06.08-.07a3.6,3.6,0,0,1,5,5l-.06.08-.06.08-.21.23-.31.28a3.6,3.6,0,0,1-5.05-5.06Z"/><path class="cls-4" d="M47.15,42.51l.61,0,4.18,4.18,0,.61.2-.22.06-.08.06-.08a3.41,3.41,0,0,0-4.78-4.78l-.08.06-.08.06Z"/><path class="cls-5" d="M47.15,42.51a3.89,3.89,0,0,0-.26.3,3.42,3.42,0,0,0,4.8,4.8,3.67,3.67,0,0,0,.29-.26l0-.61-4.18-4.18Z"/><path class="cls-6" d="M47.45,42.81a2.83,2.83,0,0,0-.23.26,3,3,0,0,0,4.21,4.2,2.56,2.56,0,0,0,.26-.23l.18-.19.05-.07.05-.07a3,3,0,0,0-4.19-4.19l-.07.05-.07.05Z"/><polygon class="cls-7" points="47.16 42.51 47.2 43.12 51.38 47.29 51.98 47.34 51.94 46.73 47.76 42.55 47.16 42.51"/><polygon class="cls-3" points="51.82 46.86 47.64 42.67 47.16 42.51 47.76 42.55 51.94 46.74 51.98 47.34 51.82 46.86"/><path class="cls-8" d="M51.27,42.45A4.36,4.36,0,0,0,47.37,47l-.13-.11-.18-.19L47,46.67,47,46.6a3,3,0,0,1,4.22-4.22l.07.05Z"/><path class="cls-3" d="M55.76,42.69a4,4,0,0,1,.27-.31l.23-.21.08-.06.08-.07a3.6,3.6,0,0,1,5,5l-.06.08-.07.08-.21.23-.31.28a3.6,3.6,0,0,1-5.05-5.06Z"/><path class="cls-4" d="M56.16,42.51l.61,0,4.18,4.18,0,.61.2-.22.06-.08.06-.08a3.42,3.42,0,0,0-4.78-4.78l-.08.06-.08.06Z"/><path class="cls-5" d="M56.16,42.51a3.33,3.33,0,0,0-.26.3,3.42,3.42,0,0,0,4.8,4.8,3.86,3.86,0,0,0,.3-.26l0-.61-4.18-4.18Z"/><path class="cls-6" d="M56.46,42.81a2.79,2.79,0,0,0-.23.26,3,3,0,0,0,4.2,4.2A2.61,2.61,0,0,0,60.7,47l.18-.19.05-.07.05-.07a3,3,0,0,0-4.19-4.19l-.07.05-.07.05Z"/><polygon class="cls-7" points="56.16 42.51 56.21 43.12 60.39 47.29 60.99 47.34 60.95 46.73 56.77 42.55 56.16 42.51"/><polygon class="cls-3" points="60.83 46.86 56.65 42.67 56.16 42.51 56.77 42.55 60.95 46.74 60.99 47.34 60.83 46.86"/><path class="cls-8" d="M60.28,42.45A4.36,4.36,0,0,0,56.38,47l-.13-.11-.18-.19L56,46.67,56,46.6a3,3,0,0,1,4.22-4.22l.07.05Z"/><path class="cls-3" d="M64.77,42.69a3.88,3.88,0,0,1,.27-.31l.23-.21.08-.06.08-.07a3.6,3.6,0,0,1,5,5l-.06.08-.07.08-.21.23c-.1.1-.2.19-.31.28a3.6,3.6,0,0,1-5.06-5.06Z"/><path class="cls-4" d="M65.17,42.51l.61,0L70,46.73l0,.61.2-.22.06-.08.06-.08a3.42,3.42,0,0,0-4.78-4.78l-.08.06-.08.06Z"/><path class="cls-5" d="M65.17,42.51a3.1,3.1,0,0,0-.26.3,3.42,3.42,0,0,0,4.8,4.8,3.84,3.84,0,0,0,.3-.26l0-.61-4.17-4.18Z"/><path class="cls-6" d="M65.47,42.81a2.81,2.81,0,0,0-.23.26,3,3,0,0,0,4.21,4.2,2.45,2.45,0,0,0,.26-.23l.18-.19.05-.07.05-.07a3,3,0,0,0-4.19-4.19l-.07.05-.07.05Z"/><polygon class="cls-7" points="65.17 42.51 65.22 43.12 69.4 47.29 70 47.34 69.96 46.73 65.78 42.55 65.17 42.51"/><polygon class="cls-3" points="69.83 46.86 65.66 42.67 65.17 42.51 65.78 42.55 69.96 46.74 70 47.34 69.83 46.86"/><path class="cls-8" d="M69.29,42.45A4.36,4.36,0,0,0,65.39,47l-.13-.11-.18-.19L65,46.67,65,46.6a3,3,0,0,1,4.22-4.22l.07.05Z"/><path class="cls-3" d="M37.74,53.18a3.6,3.6,0,0,1,.28-.31l.23-.21.08-.07.08-.06a3.6,3.6,0,0,1,5,5l-.06.08-.06.08-.21.23c-.1.1-.2.19-.31.28a3.6,3.6,0,0,1-5.05-5.06Z"/><path class="cls-4" d="M38.15,53l.61,0,4.17,4.18,0,.6.2-.22.06-.08.06-.08a3.42,3.42,0,0,0-4.78-4.78l-.08.06-.08.06Z"/><path class="cls-5" d="M38.15,53a3.81,3.81,0,0,0-.26.29,3.42,3.42,0,0,0,4.8,4.8,2.83,2.83,0,0,0,.29-.26l0-.6L38.75,53Z"/><path class="cls-6" d="M38.45,53.3a3.08,3.08,0,0,0-.23.26,3,3,0,0,0,4.21,4.2,2.81,2.81,0,0,0,.26-.23l.18-.19.05-.07L43,57.2A3,3,0,0,0,38.77,53l-.07.05-.07.05Z"/><polygon class="cls-7" points="38.15 53 38.19 53.61 42.37 57.78 42.98 57.83 42.93 57.23 38.75 53.04 38.15 53"/><polygon class="cls-3" points="42.81 57.35 38.63 53.17 38.15 53 38.75 53.04 42.93 57.23 42.98 57.83 42.81 57.35"/><path class="cls-8" d="M42.26,52.94a4.37,4.37,0,0,0-3.9,4.6l-.13-.11-.18-.19L38,57.16l-.06-.07a3,3,0,0,1,4.22-4.22l.07.05Z"/><path class="cls-3" d="M46.75,53.18a3.36,3.36,0,0,1,.27-.31l.23-.21.08-.07.08-.06a3.6,3.6,0,0,1,5,5l-.06.08-.06.08-.21.23-.31.28a3.6,3.6,0,0,1-5.05-5.06Z"/><path class="cls-4" d="M47.15,53l.61,0,4.18,4.18,0,.6.2-.22.06-.08.06-.08a3.41,3.41,0,0,0-4.78-4.78l-.08.06-.08.06Z"/><path class="cls-5" d="M47.15,53c-.09.09-.18.19-.26.29a3.42,3.42,0,0,0,4.8,4.8,2.75,2.75,0,0,0,.29-.26l0-.6L47.76,53Z"/><path class="cls-6" d="M47.45,53.3a2.92,2.92,0,0,0-.23.26,3,3,0,0,0,4.21,4.2,2.87,2.87,0,0,0,.26-.23l.18-.19.05-.07L52,57.2A3,3,0,0,0,47.78,53l-.07.05-.07.05Z"/><polygon class="cls-7" points="47.16 53 47.2 53.61 51.38 57.78 51.98 57.83 51.94 57.23 47.76 53.04 47.16 53"/><polygon class="cls-3" points="51.82 57.35 47.64 53.17 47.16 53 47.76 53.04 51.94 57.23 51.98 57.83 51.82 57.35"/><path class="cls-8" d="M51.27,52.94a4.37,4.37,0,0,0-3.9,4.6l-.13-.11-.18-.19L47,57.16,47,57.09a3,3,0,0,1,4.22-4.22l.07.05Z"/><path class="cls-3" d="M55.76,53.18a3.68,3.68,0,0,1,.27-.31l.23-.21.08-.07.08-.06a3.6,3.6,0,0,1,5,5l-.06.08-.07.08-.21.23-.31.28a3.6,3.6,0,0,1-5.05-5.06Z"/><path class="cls-4" d="M56.16,53l.61,0,4.18,4.18,0,.6.2-.22.06-.08.06-.08a3.42,3.42,0,0,0-4.78-4.78l-.08.06-.08.06Z"/><path class="cls-5" d="M56.16,53a3.37,3.37,0,0,0-.26.29,3.41,3.41,0,0,0,4.8,4.8,2.85,2.85,0,0,0,.3-.26l0-.6L56.77,53Z"/><path class="cls-6" d="M56.46,53.3a2.88,2.88,0,0,0-.23.26,3,3,0,0,0,4.2,4.2,2.94,2.94,0,0,0,.26-.23l.18-.19.05-.07L61,57.2A3,3,0,0,0,56.79,53l-.07.05-.07.05Z"/><polygon class="cls-7" points="56.16 53 56.21 53.61 60.39 57.78 60.99 57.83 60.95 57.23 56.77 53.04 56.16 53"/><polygon class="cls-3" points="60.83 57.35 56.65 53.17 56.16 53 56.77 53.04 60.95 57.23 60.99 57.83 60.83 57.35"/><path class="cls-8" d="M60.28,52.94a4.36,4.36,0,0,0-3.9,4.6l-.13-.11-.18-.19L56,57.16,56,57.09a3,3,0,0,1,4.22-4.22l.07.05Z"/><path class="cls-3" d="M64.77,53.18a3.58,3.58,0,0,1,.27-.31l.23-.21.08-.07.08-.06a3.6,3.6,0,0,1,5,5l-.06.08-.07.08-.21.23c-.1.1-.2.19-.31.28a3.6,3.6,0,0,1-5.06-5.06Z"/><path class="cls-4" d="M65.17,53l.61,0L70,57.23l0,.6.2-.22.06-.08.06-.08a3.42,3.42,0,0,0-4.78-4.78l-.08.06-.08.06Z"/><path class="cls-5" d="M65.17,53a3.13,3.13,0,0,0-.26.29,3.41,3.41,0,0,0,4.8,4.8,2.85,2.85,0,0,0,.3-.26l0-.6L65.78,53Z"/><path class="cls-6" d="M65.47,53.3a2.89,2.89,0,0,0-.23.26,3,3,0,0,0,4.21,4.2,2.73,2.73,0,0,0,.26-.23l.18-.19.05-.07L70,57.2A3,3,0,0,0,65.8,53l-.07.05-.07.05Z"/><polygon class="cls-7" points="65.17 53 65.22 53.61 69.4 57.78 70 57.83 69.96 57.23 65.78 53.04 65.17 53"/><polygon class="cls-3" points="69.83 57.35 65.66 53.17 65.17 53 65.78 53.04 69.96 57.23 70 57.83 69.83 57.35"/><path class="cls-8" d="M69.29,52.94a4.37,4.37,0,0,0-3.9,4.6l-.13-.11-.18-.19L65,57.16,65,57.09a3,3,0,0,1,4.22-4.22l.07.05Z"/><path class="cls-9" d="M30.28,62.18H6a3,3,0,0,1-3-3V15.89H33.26V59.2A3,3,0,0,1,30.28,62.18Z"/><rect class="cls-3" x="2.97" y="15.89" width="30.28" height="0.74"/><path class="cls-10" d="M1.46,12.32V11.26c0-.59.51-1.06,1.6-1.06H33.17c1.1,0,1.6.47,1.6,1.06v1.06Z"/><rect class="cls-3" x="1.46" y="11.94" width="33.31" height="0.4"/><path class="cls-10" d="M3.06,10.2V2A2,2,0,0,1,5,0H31.18a2,2,0,0,1,2,2V10.2Z"/><rect class="cls-6" x="6.51" y="26.77" width="23.21" height="24.52"/><rect class="cls-9" y="12.32" width="36.23" height="3.56"/><rect class="cls-8" x="2.17" y="12.32" width="7.92" height="3.56"/><rect class="cls-8" x="30.16" y="12.32" width="3.03" height="3.56"/><path class="cls-8" d="M12.33,15.89H5.21V59.2c0,1.65,1,3,2.27,3h4.85Z"/><path class="cls-8" d="M28.17,15.89h2.78V59.2c0,1.65-.4,3-.88,3H28.17Z"/><path class="cls-11" d="M27.21,39.54H25.93a5.84,5.84,0,0,0,.91-2.92c0-.06,0-.12,0-.17a5,5,0,0,0-5-4.85l-.44,0a5,5,0,0,0-3.25,1.6,5,5,0,0,0-8.71,3.39,5.86,5.86,0,0,0,.9,2.92H9v.62H10.7c2.32,3.38,7,6.11,7.25,6.26a.35.35,0,0,0,.17,0,.34.34,0,0,0,.17,0c.26-.15,4.91-2.89,7.24-6.26h1.68ZM10.1,36.62A4.34,4.34,0,0,1,17.85,34a.34.34,0,0,0,.27.13h0a.34.34,0,0,0,.27-.13,4.35,4.35,0,0,1,3-1.66l.39,0a4.32,4.32,0,0,1,4.33,4.2s0,.09,0,.13a5.46,5.46,0,0,1-1,2.92H18.5l-.71-2.82a.31.31,0,0,0-.3-.23h0a.31.31,0,0,0-.3.24l-.92,4L15,34.64a.31.31,0,0,0-.6,0L13,39.54H11.11A5.5,5.5,0,0,1,10.1,36.62Zm8,9.11a26.22,26.22,0,0,1-6.58-5.57H13.2a.31.31,0,0,0,.3-.22l1.18-4,1.28,6.32a.31.31,0,0,0,.3.25h0a.31.31,0,0,0,.3-.24l1-4.18.45,1.8a.31.31,0,0,0,.3.23h6.43A26.73,26.73,0,0,1,18.12,45.72Z"/><path class="cls-12" d="M5.25,9.07a.48.48,0,0,1-.5-.47v-7a.5.5,0,0,1,1,0v7A.48.48,0,0,1,5.25,9.07Z"/><path class="cls-12" d="M7.82,9.07a.48.48,0,0,1-.5-.47v-7a.5.5,0,0,1,1,0v7A.48.48,0,0,1,7.82,9.07Z"/><path class="cls-12" d="M10.39,9.07a.48.48,0,0,1-.5-.47v-7a.5.5,0,0,1,1,0v7A.48.48,0,0,1,10.39,9.07Z"/><path class="cls-12" d="M13,9.07a.48.48,0,0,1-.5-.47v-7a.5.5,0,0,1,1,0v7A.48.48,0,0,1,13,9.07Z"/><path class="cls-12" d="M15.54,9.07a.48.48,0,0,1-.5-.47v-7a.5.5,0,0,1,1,0v7A.48.48,0,0,1,15.54,9.07Z"/><path class="cls-12" d="M18.11,9.07a.48.48,0,0,1-.5-.47v-7a.5.5,0,0,1,1,0v7A.48.48,0,0,1,18.11,9.07Z"/><path class="cls-12" d="M20.69,9.07a.48.48,0,0,1-.5-.47v-7a.5.5,0,0,1,1,0v7A.48.48,0,0,1,20.69,9.07Z"/><path class="cls-12" d="M23.26,9.07a.48.48,0,0,1-.5-.47v-7a.5.5,0,0,1,1,0v7A.48.48,0,0,1,23.26,9.07Z"/><path class="cls-12" d="M25.84,9.07a.48.48,0,0,1-.5-.47v-7a.5.5,0,0,1,1,0v7A.48.48,0,0,1,25.84,9.07Z"/><path class="cls-12" d="M28.41,9.07a.48.48,0,0,1-.5-.47v-7a.5.5,0,0,1,1,0v7A.48.48,0,0,1,28.41,9.07Z"/><path class="cls-12" d="M31,9.07a.48.48,0,0,1-.5-.47v-7a.5.5,0,0,1,1,0v7A.48.48,0,0,1,31,9.07Z"/><path class="cls-8" d="M10.36,10.2V2c0-1.1.62-2,1.39-2H6.25A1.88,1.88,0,0,0,4.49,2V10.2c-1,0-1.42.47-1.42,1.06v1.06H9.23V11.26A1,1,0,0,1,10.36,10.2Z"/></g></g></svg>