<svg xmlns="http://www.w3.org/2000/svg" viewBox="0 0 71.61 66.14"><defs><style>.cls-1{fill:#4d4e54}.cls-8{opacity:.3}.cls-5,.cls-8{fill:#fff}.cls-6{opacity:.2}.cls-7{fill:#f1f1f1}.cls-9{fill:#4f9ec9}.cls-10{fill:#f74910}.cls-13{fill:#f0f0f0}.cls-16{fill:#3b3c42}</style></defs><g id="katman_2" data-name="katman 2"><g id="Icons"><path class="cls-1" d="M68.33 66.14h-65A1.21 1.21 0 012 65v-1.21h67.58V65a1.21 1.21 0 01-1.25 1.14z"/><path d="M1.88 2.5h67.85a1.87 1.87 0 011.87 1.87v57.55a1.88 1.88 0 01-1.88 1.88H1.88A1.88 1.88 0 010 61.92V4.38A1.88 1.88 0 011.88 2.5z" fill="#d5d4d9"/><path d="M66.06 62.15h-7a4.65 4.65 0 00-.58-2.26 1.88 1.88 0 00-.12-.21 4.78 4.78 0 00-.67-.84 5.08 5.08 0 00-.85-.68l-.18-.16a4.69 4.69 0 00-5.58.79 4.63 4.63 0 00-1.37 3.32H5.55A.86.86 0 014.69 61l1.1-3.41a1.83 1.83 0 011.64-1.19h56.75a1.83 1.83 0 011.64 1.19l1.1 3.41a.86.86 0 01-.86 1.15z" fill="#7a7a7a"/><g opacity=".3"><path class="cls-5" d="M67.24 61.3l-1.11-3.41a1.68 1.68 0 00-.53-.75 1.5 1.5 0 01.21.41L66.92 61a.86.86 0 01-.87 1.19h-7c0 .11 7.29.34 7.29.34a.86.86 0 00.9-1.23zM57.72 58.84a5.08 5.08 0 00-.85-.68l-.21-.16a4.69 4.69 0 00-5.58.79 4.63 4.63 0 00-1.37 3.32H5.55A1 1 0 015 62a.88.88 0 00.84.47H50a4.7 4.7 0 017-4.12l.21.12a5.14 5.14 0 01.78.62z"/></g><path class="cls-6" d="M5.31 61.59l1.11-3.41A1.83 1.83 0 018.05 57h56.76a1.7 1.7 0 01.87.27 1.85 1.85 0 00-1.5-.9H7.43a1.83 1.83 0 00-1.64 1.19L4.69 61a.84.84 0 00.59 1.16 1 1 0 01.03-.57z"/><path class="cls-7" d="M25.67 58.25h-3.73a.67.67 0 00-.67.67v.67a.67.67 0 00.67.67h3.73a.67.67 0 00.67-.67v-.67a.67.67 0 00-.67-.67z"/><path class="cls-8" d="M21.45 59.87v-.67a.67.67 0 01.67-.67h3.73a.66.66 0 01.44.18.67.67 0 00-.63-.45h-3.72a.67.67 0 00-.67.67v.67a.66.66 0 00.23.5.66.66 0 01-.05-.23z"/><path class="cls-6" d="M25.67 58.25h-.07a.67.67 0 01.67.67v.67a.67.67 0 01-.67.67h.08a.67.67 0 00.67-.67v-.67a.67.67 0 00-.68-.67z"/><path class="cls-7" d="M33.25 58.25h-3.73a.67.67 0 00-.67.67v.67a.67.67 0 00.67.67h3.73a.67.67 0 00.67-.67v-.67a.67.67 0 00-.67-.67z"/><path class="cls-8" d="M29 59.87v-.67a.67.67 0 01.67-.67h3.73a.66.66 0 01.44.18.66.66 0 00-.63-.45h-3.69a.67.67 0 00-.67.67v.67a.66.66 0 00.23.5.66.66 0 01-.08-.23z"/><path class="cls-6" d="M33.25 58.25h-.07a.67.67 0 01.67.67v.67a.67.67 0 01-.67.67h.08a.67.67 0 00.67-.67v-.67a.67.67 0 00-.68-.67z"/><path class="cls-7" d="M40.83 58.25H37.1a.67.67 0 00-.67.67v.67a.67.67 0 00.67.67h3.73a.67.67 0 00.67-.67v-.67a.67.67 0 00-.67-.67z"/><path class="cls-8" d="M36.61 59.87v-.67a.67.67 0 01.67-.67H41a.67.67 0 01.45.18.67.67 0 00-.63-.45H37.1a.67.67 0 00-.67.67v.67a.66.66 0 00.23.5.66.66 0 01-.05-.23z"/><path class="cls-6" d="M40.83 58.25h-.07a.67.67 0 01.67.67v.67a.67.67 0 01-.67.67h.08a.67.67 0 00.67-.67v-.67a.67.67 0 00-.68-.67z"/><path class="cls-7" d="M48.41 58.25h-3.73a.67.67 0 00-.67.67v.67a.67.67 0 00.67.67h3.73a.67.67 0 00.67-.67v-.67a.67.67 0 00-.67-.67z"/><path class="cls-8" d="M44.19 59.87v-.67a.67.67 0 01.67-.67h3.74a.67.67 0 01.44.18.67.67 0 00-.63-.45h-3.73a.67.67 0 00-.67.67v.67a.66.66 0 00.23.5.66.66 0 01-.05-.23z"/><path class="cls-6" d="M48.41 58.25h-.07a.67.67 0 01.67.67v.67a.67.67 0 01-.67.67h.08a.67.67 0 00.67-.67v-.67a.67.67 0 00-.68-.67z"/><path class="cls-7" d="M64.68 58.25H61a.67.67 0 00-.67.67v.67a.67.67 0 00.67.67h3.73a.67.67 0 00.67-.67v-.67a.67.67 0 00-.72-.67z"/><path class="cls-8" d="M60.46 59.87v-.67a.67.67 0 01.67-.67h3.73a.66.66 0 01.44.18.67.67 0 00-.63-.45H61a.67.67 0 00-.67.67v.67a.66.66 0 00.23.5.66.66 0 01-.1-.23z"/><path class="cls-6" d="M64.68 58.25h-.07a.67.67 0 01.67.67v.67a.67.67 0 01-.67.67h.08a.67.67 0 00.67-.67v-.67a.67.67 0 00-.68-.67z"/><path class="cls-7" d="M65.12 10.32v40.77A1.88 1.88 0 0163.24 53H8.36a1.88 1.88 0 01-1.87-1.88v-40.8a1.88 1.88 0 011.87-1.88h54.88a1.88 1.88 0 011.88 1.88z"/><path class="cls-1" d="M17.28 2.5L18 1.12A2.21 2.21 0 0119.78 0h32.05a2.22 2.22 0 011.81 1.12l.69 1.38z"/><path class="cls-8" d="M1.25 5.63a1.88 1.88 0 011.88-1.88h15.4l.69-1.38A2.21 2.21 0 0121 1.25S52.52 0 51.83 0H19.78A2.21 2.21 0 0018 1.12l-.72 1.38H1.87A1.88 1.88 0 000 4.38v57.54c0 .84 1.25-56.29 1.25-56.29z"/><path class="cls-9" d="M65.29 43.2c-1.45 0-2.17-1-2.86-2s-1.28-1.78-2.51-1.78-1.85.87-2.5 1.78-1.41 2-2.86 2-2.17-1-2.86-2-1.28-1.78-2.5-1.78-1.85.87-2.5 1.78-1.41 2-2.86 2-2.17-1-2.86-2-1.27-1.78-2.5-1.78-1.85.87-2.5 1.78-1.41 2-2.86 2-2.17-1-2.86-2-1.27-1.78-2.5-1.78-1.84.87-2.5 1.78-1.41 2-2.86 2-2.17-1-2.86-2-1.27-1.78-2.5-1.78-1.84.87-2.5 1.78-1.4 2-2.86 2-2.17-1-2.86-2-1.27-1.78-2.5-1.78V39c1.45 0 2.17 1 2.86 2s1.27 1.79 2.5 1.79 1.84-.87 2.5-1.79 1.4-2 2.85-2 2.17 1 2.86 2 1.27 1.79 2.5 1.79 1.85-.87 2.5-1.79 1.4-2 2.86-2 2.17 1 2.86 2 1.28 1.79 2.5 1.79S35 41.9 35.61 41s1.41-2 2.86-2 2.17 1 2.86 2 1.27 1.79 2.5 1.79 1.84-.87 2.5-1.79 1.41-2 2.86-2 2.17 1 2.86 2 1.27 1.79 2.5 1.79 1.85-.89 2.51-1.79 1.41-2 2.86-2 2.17 1 2.86 2 1.28 1.79 2.51 1.79zM15 36.32h-.39a5.28 5.28 0 01-1.79-.49 4.88 4.88 0 01-.9-.76A6 6 0 0010.54 34a3.69 3.69 0 00-.52-.16 1.77 1.77 0 01-1.34-.9c0-.09-.08-.2-.12-.31a2.43 2.43 0 00-.21-.46 1.11 1.11 0 00-.11.16 7.09 7.09 0 00-.3 1.48c-.2 1.34-.36 2.23-.73 2.49a.22.22 0 01-.13 0h-.45v-.44H7a7.72 7.72 0 00.51-2.16 6.22 6.22 0 01.35-1.63c.1-.18.26-.43.53-.41s.45.4.58.76c0 .1.08.2.11.28.21.44.6.54 1.05.66a4.1 4.1 0 01.58.19 6.08 6.08 0 011.48 1.17 5 5 0 00.79.68 4.83 4.83 0 001.59.45H15zM23.3 36.32h-.39a5.26 5.26 0 01-1.79-.49 4.81 4.81 0 01-.9-.76A5.93 5.93 0 0018.88 34a3.67 3.67 0 00-.52-.16 1.76 1.76 0 01-1.33-.9c0-.09-.08-.2-.13-.31a2.63 2.63 0 00-.21-.46.83.83 0 00-.11.16 7 7 0 00-.31 1.49c-.2 1.33-.36 2.23-.73 2.49a.22.22 0 01-.13 0H15v-.44h.37a7.72 7.72 0 00.51-2.16 6.19 6.19 0 01.36-1.63c.1-.18.26-.43.52-.41s.44.38.58.76l.11.28c.2.44.6.54 1.05.66a4.06 4.06 0 01.58.19 6.16 6.16 0 011.48 1.17 4.84 4.84 0 00.79.68 4.81 4.81 0 001.59.45h.39z"/><path class="cls-9" d="M31.64 36.32h-.39a5.26 5.26 0 01-1.79-.49 4.88 4.88 0 01-.9-.76A5.88 5.88 0 0027.21 34a3.63 3.63 0 00-.52-.16 1.76 1.76 0 01-1.33-.9c0-.09-.08-.2-.13-.31a2.62 2.62 0 00-.21-.46.9.9 0 00-.11.16 7.26 7.26 0 00-.31 1.49c-.2 1.33-.36 2.23-.73 2.49a.22.22 0 01-.13 0h-.44v-.44h.37a7.72 7.72 0 00.51-2.16 6.31 6.31 0 01.36-1.63c.11-.18.27-.43.53-.41s.44.38.58.76c0 .1.08.2.11.28.21.44.6.54 1.05.66a4.13 4.13 0 01.58.19 6.12 6.12 0 011.48 1.17 4.93 4.93 0 00.79.68 4.82 4.82 0 001.59.45h.39z"/><path class="cls-9" d="M40 36.32h-.39a5.25 5.25 0 01-1.79-.49 4.81 4.81 0 01-.9-.76A6 6 0 0035.55 34a3.74 3.74 0 00-.52-.16 1.76 1.76 0 01-1.33-.9c0-.09-.09-.2-.13-.31a2.64 2.64 0 00-.21-.46.85.85 0 00-.11.16 7.26 7.26 0 00-.31 1.48c-.2 1.33-.36 2.23-.73 2.49a.21.21 0 01-.12 0h-.45v-.44H32a7.65 7.65 0 00.51-2.16 6.12 6.12 0 01.36-1.63c.1-.18.28-.42.53-.41s.44.38.58.76l.11.28c.21.44.6.54 1.05.66a4.09 4.09 0 01.58.19 6.19 6.19 0 011.48 1.17 4.9 4.9 0 00.79.68 4.81 4.81 0 001.59.45H40zM48.3 36.32h-.39a5.27 5.27 0 01-1.79-.49 4.75 4.75 0 01-.9-.76A6 6 0 0043.88 34a3.69 3.69 0 00-.52-.16 1.76 1.76 0 01-1.33-.9c0-.09-.08-.2-.13-.31a2.64 2.64 0 00-.21-.46.9.9 0 00-.11.16 7.13 7.13 0 00-.31 1.48c-.2 1.33-.36 2.23-.73 2.49a.22.22 0 01-.13 0H40v-.44h.37a7.65 7.65 0 00.51-2.16 6.12 6.12 0 01.36-1.63c.1-.18.26-.43.53-.41s.45.4.58.76c0 .1.07.2.11.28.21.44.6.54 1.05.66a4.08 4.08 0 01.58.19 6.16 6.16 0 011.48 1.17 5 5 0 00.79.68 4.85 4.85 0 001.59.45h.39z"/><path class="cls-9" d="M56.64 36.32h-.39a5.23 5.23 0 01-1.78-.49 4.81 4.81 0 01-.9-.76A6 6 0 0052.22 34a3.65 3.65 0 00-.52-.16 1.76 1.76 0 01-1.33-.9c0-.09-.08-.2-.13-.31a2.5 2.5 0 00-.21-.46 1 1 0 00-.11.16 7.28 7.28 0 00-.3 1.48c-.2 1.34-.36 2.23-.73 2.49a.22.22 0 01-.13 0h-.46v-.44h.37a7.71 7.71 0 00.51-2.16 6.22 6.22 0 01.35-1.63c.1-.18.26-.43.53-.41s.45.4.59.76c0 .1.07.2.11.28.21.44.6.54 1.05.66a4.06 4.06 0 01.58.19 6.1 6.1 0 011.48 1.17 5.17 5.17 0 00.79.68 4.85 4.85 0 001.59.45h.39z"/><path class="cls-9" d="M65 36.32h-.39a5.26 5.26 0 01-1.79-.49 4.75 4.75 0 01-.9-.76A6 6 0 0060.55 34a3.61 3.61 0 00-.52-.16 1.77 1.77 0 01-1.33-.9c0-.09-.08-.2-.13-.31a2.62 2.62 0 00-.21-.46.79.79 0 00-.11.16 7.23 7.23 0 00-.31 1.49c-.2 1.33-.36 2.23-.73 2.49a.21.21 0 01-.13 0h-.45v-.44H57a7.71 7.71 0 00.51-2.16 6.14 6.14 0 01.36-1.63c.1-.18.26-.43.52-.41s.44.38.58.76c0 .1.08.2.11.28.21.44.6.54 1.05.66a4.21 4.21 0 01.58.19 6.23 6.23 0 011.48 1.17 4.85 4.85 0 00.79.68 4.81 4.81 0 001.59.45H65z"/><circle class="cls-10" cx="14.14" cy="59.26" r=".49"/><path class="cls-6" d="M14.41 58.85a.49.49 0 01.13.33.5.5 0 01-.49.49.51.51 0 01-.27-.08.49.49 0 00.86-.33.49.49 0 00-.23-.41z"/><circle cx="16.42" cy="59.26" r=".49" fill="#5ab353"/><path class="cls-6" d="M16.69 58.85a.48.48 0 01.13.33.5.5 0 01-.5.49.5.5 0 01-.27-.08.49.49 0 00.86-.33.49.49 0 00-.22-.41z"/><circle cx="18.53" cy="59.26" r=".49" fill="#ffae01"/><path class="cls-6" d="M18.8 58.85a.49.49 0 01-.37.82.51.51 0 01-.27-.08.5.5 0 00.37.17.49.49 0 00.27-.91z"/><circle class="cls-10" cx="9.67" cy="59.26" r="1.79"/><path class="cls-8" d="M9.67 57.71a1.78 1.78 0 011.78 1.67v-.12a1.79 1.79 0 00-3.57 0v.12a1.78 1.78 0 011.79-1.67z"/><path class="cls-6" d="M9.67 60.8a1.78 1.78 0 001.78-1.67v.12a1.79 1.79 0 11-3.57 0v-.12a1.78 1.78 0 001.79 1.67z"/><path class="cls-13" d="M9.67 60.51a1.13 1.13 0 01-.71-2 .15.15 0 01.19.24.82.82 0 101 0 .15.15 0 01.19-.24 1.13 1.13 0 01-.71 2z"/><path class="cls-13" d="M9.67 59.49a.15.15 0 01-.15-.15v-1.18a.15.15 0 11.3 0v1.18a.15.15 0 01-.15.15z"/><path class="cls-9" d="M9.63 30.87a.22.22 0 01-.21-.18c-.15-.75-.26-2.58-.35-4C9 26 9 25.31 8.95 24.9a3 3 0 01-1 .29 2.13 2.13 0 01-.86-.19h-.6v-.44h.74a2 2 0 00.67.2c.51-.07.94-.22 1-.37a.22.22 0 01.17-.12.21.21 0 01.19.07c.09.1.11.25.23 2.3 0 .59.08 1.24.12 1.86v-.11c.15-1.41.33-3 .31-3.58a.21.21 0 01.14-.21.22.22 0 01.24.06c.16.18.34.37.52.56a10.94 10.94 0 01.76.87 4.9 4.9 0 00.33-.52 2.67 2.67 0 01.22-.35 4.07 4.07 0 012.87-.96 2.67 2.67 0 01.8.27h.46V25h-.6a2.79 2.79 0 00-.66-.3 3.85 3.85 0 00-2.5.78 2.35 2.35 0 00-.18.29 5.19 5.19 0 01-.56.82.23.23 0 01-.19.08.22.22 0 01-.17-.12 6.38 6.38 0 00-.87-1l-.16-.17c0 .77-.18 2-.3 3.08-.1.93-.2 1.8-.22 2.25a.22.22 0 01-.21.21z"/><path class="cls-9" d="M19.4 30.87a.22.22 0 01-.21-.18c-.15-.75-.26-2.58-.35-4 0-.64-.08-1.34-.12-1.75a3 3 0 01-1 .29 2.15 2.15 0 01-.86-.22h-.6v-.44h.73a2 2 0 00.67.2c.52-.07.94-.22 1-.37a.22.22 0 01.17-.12.21.21 0 01.2.07c.09.1.11.25.23 2.3 0 .59.08 1.24.12 1.86v-.11c.15-1.41.33-3 .31-3.58a.21.21 0 01.14-.21.22.22 0 01.24.06c.16.18.33.37.51.56a10.6 10.6 0 01.76.87 5.25 5.25 0 00.33-.52 2.67 2.67 0 01.22-.35 4.05 4.05 0 012.85-.95 2.67 2.67 0 01.8.27H26V25h-.6a2.79 2.79 0 00-.66-.25 3.85 3.85 0 00-2.5.78 2.6 2.6 0 00-.18.29 5.15 5.15 0 01-.55.82.22.22 0 01-.36 0 6.25 6.25 0 00-.87-1l-.16-.17c0 .77-.18 2-.3 3.08-.1.93-.19 1.8-.22 2.25a.22.22 0 01-.2.21zM29.17 30.87a.22.22 0 01-.17-.17c-.15-.75-.26-2.58-.35-4 0-.64-.08-1.34-.12-1.75a3 3 0 01-1 .29 2.15 2.15 0 01-.86-.22H26v-.44h.74a2 2 0 00.67.2c.52-.07.94-.22 1-.37a.22.22 0 01.17-.12.22.22 0 01.2.07c.09.1.11.25.23 2.3 0 .59.08 1.24.12 1.86v-.11c.15-1.41.33-3 .31-3.58a.22.22 0 01.38-.15l.52.56a10.55 10.55 0 01.76.87 4.9 4.9 0 00.33-.52 2.48 2.48 0 01.22-.35 4.06 4.06 0 012.85-.95 2.68 2.68 0 01.81.27h.46V25H35.21a2.8 2.8 0 00-.67-.25 3.86 3.86 0 00-2.5.78 2.24 2.24 0 00-.18.29 5 5 0 01-.56.82.23.23 0 01-.19.08.22.22 0 01-.17-.12 6.48 6.48 0 00-.87-1l-.16-.17c0 .77-.18 2-.3 3.08-.1.93-.2 1.8-.22 2.25a.22.22 0 01-.2.21zM38.94 30.87a.22.22 0 01-.21-.18c-.15-.75-.26-2.58-.35-4 0-.64-.08-1.34-.12-1.75a3 3 0 01-1 .29 2.16 2.16 0 01-.86-.23h-.6v-.44h.73a2 2 0 00.67.2c.51-.07.94-.22 1-.37a.22.22 0 01.37-.05c.09.1.11.25.23 2.3 0 .59.08 1.24.12 1.86v-.11c.15-1.41.33-3 .31-3.58a.21.21 0 01.14-.21.22.22 0 01.24.06c.16.18.33.37.52.56a10.94 10.94 0 01.76.87 5.25 5.25 0 00.33-.52 2.57 2.57 0 01.22-.35 4.07 4.07 0 012.85-.95 2.7 2.7 0 01.81.27h.46V25h-.6a2.82 2.82 0 00-.66-.25 3.87 3.87 0 00-2.5.78 2.24 2.24 0 00-.18.29 5.19 5.19 0 01-.56.82.23.23 0 01-.19.08.22.22 0 01-.17-.12 6.35 6.35 0 00-.87-1l-.16-.17c0 .77-.18 2-.3 3.08-.1.93-.2 1.8-.22 2.25a.22.22 0 01-.2.21zM48.71 30.87a.22.22 0 01-.21-.18c-.15-.75-.26-2.58-.35-4 0-.64-.08-1.34-.12-1.75a3 3 0 01-1 .29 2.14 2.14 0 01-.86-.22h-.6v-.44h.74a2 2 0 00.67.2c.52-.07.94-.22 1-.37a.22.22 0 01.17-.12.21.21 0 01.2.07c.09.1.11.25.23 2.3 0 .59.08 1.24.12 1.86v-.11c.15-1.41.33-3 .31-3.58a.21.21 0 01.14-.21.22.22 0 01.24.06c.16.18.33.37.51.56a10.6 10.6 0 01.76.87 4.9 4.9 0 00.33-.52 2.78 2.78 0 01.22-.35 4.08 4.08 0 012.85-.95 2.68 2.68 0 01.81.27h.46V25h-.61a2.82 2.82 0 00-.66-.25 3.84 3.84 0 00-2.5.78 2.23 2.23 0 00-.18.29 4.92 4.92 0 01-.56.82.22.22 0 01-.36 0 6.38 6.38 0 00-.87-1l-.16-.17c0 .77-.18 2-.29 3.08-.1.93-.2 1.8-.22 2.25a.22.22 0 01-.2.21zM58.48 30.87a.22.22 0 01-.21-.18c-.15-.75-.26-2.58-.35-4 0-.64-.08-1.34-.12-1.75a3.05 3.05 0 01-1 .29 2.15 2.15 0 01-.86-.22h-.6v-.44h.75a2 2 0 00.67.2c.52-.07.94-.22 1-.37a.22.22 0 01.17-.12.21.21 0 01.2.07c.09.1.11.25.23 2.3 0 .59.08 1.24.12 1.86v-.11c.15-1.41.33-3 .31-3.58a.22.22 0 01.14-.21.22.22 0 01.25.06c.16.18.34.37.51.56a10.18 10.18 0 01.76.87 4.59 4.59 0 00.33-.52 2.78 2.78 0 01.22-.35 4.08 4.08 0 012.85-.95 2.68 2.68 0 01.8.27h.46V25h-.61a2.79 2.79 0 00-.66-.25 3.86 3.86 0 00-2.5.78 2.24 2.24 0 00-.18.29 5.05 5.05 0 01-.56.82.23.23 0 01-.19.08.22.22 0 01-.17-.12 6.31 6.31 0 00-.87-1l-.16-.17c0 .77-.18 2-.3 3.08-.1.93-.2 1.8-.22 2.25a.21.21 0 01-.2.21zM17.9 22.18c-.48 0-2.58-2.87-2.6-2.9A8.89 8.89 0 0115 17c-.09-1.13-.24-2.85-.39-3.71-.24 1.32-.57 4.85-.8 8.07a.22.22 0 01-.2.2.22.22 0 01-.23-.17l-.48-2h-2.56l-.79.61a.22.22 0 01-.28 0l-.69-.6H6.8V19h1.86a.22.22 0 01.14.05l.62.54.71-.54a.23.23 0 01.14 0h2.83a.22.22 0 01.21.17l.2.8c.57-7.53.9-7.53 1.13-7.53s.48.42.83 4.55c.08.92.16 2 .22 2.11a27.26 27.26 0 002.22 2.66 24.51 24.51 0 002.21-2.66.22.22 0 01.18-.09h1v.44h-.9c-2.1 2.68-2.4 2.68-2.5 2.68zM32.41 22.18c-.48 0-2.57-2.87-2.59-2.9a8.57 8.57 0 01-.28-2.3c-.09-1.13-.24-2.85-.39-3.7-.24 1.32-.57 4.85-.8 8.08a.22.22 0 01-.43 0l-.48-2h-2.6L24 20a.22.22 0 01-.28 0l-.69-.6H21.3V19h1.86a.22.22 0 01.14.05l.62.54.71-.54a.22.22 0 01.13 0h2.84a.22.22 0 01.21.17l.19.8c.57-7.53.91-7.53 1.13-7.53s.48.42.83 4.54c.08.92.16 2 .22 2.11a27.06 27.06 0 002.22 2.66 24.91 24.91 0 002.21-2.66.22.22 0 01.17-.09h1v.44h-.9c-2.08 2.69-2.36 2.69-2.47 2.69zM46.91 22.18c-.48 0-2.57-2.87-2.59-2.9A8.78 8.78 0 0144 17c-.1-1.13-.24-2.84-.39-3.7-.24 1.32-.57 4.85-.8 8.07a.22.22 0 01-.2.2.22.22 0 01-.23-.17l-.48-2h-2.56l-.79.61a.22.22 0 01-.28 0l-.69-.6H35.8V19h1.86a.22.22 0 01.14.05l.62.54.71-.54a.22.22 0 01.13 0h2.84a.22.22 0 01.21.17l.19.8c.57-7.53.9-7.53 1.13-7.53s.48.42.83 4.54c.08.92.17 2 .22 2.11a26.82 26.82 0 002.22 2.66 24.29 24.29 0 002.21-2.66.22.22 0 01.17-.09h1v.44h-.9c-2.07 2.69-2.38 2.69-2.47 2.69zM61.41 22.18c-.49 0-2.58-2.87-2.6-2.9a8.73 8.73 0 01-.28-2.3c-.1-1.13-.24-2.84-.39-3.7-.24 1.32-.57 4.85-.8 8.07a.22.22 0 01-.2.2.21.21 0 01-.23-.17l-.49-2h-2.58l-.79.61a.22.22 0 01-.28 0l-.69-.6h-1.77V19h1.86a.23.23 0 01.15.05l.61.54.71-.54a.22.22 0 01.13 0h2.84a.22.22 0 01.21.17l.19.8c.57-7.53.91-7.53 1.13-7.53s.48.42.83 4.54c.08.92.17 2 .22 2.12a27.27 27.27 0 002.22 2.66 24.57 24.57 0 002.21-2.66.22.22 0 01.18-.15h1v.44h-.9c-2.09 2.74-2.38 2.74-2.49 2.74z"/><path class="cls-6" d="M63.24 8.44H9a2.51 2.51 0 00-2.5 2.5v40.6A1.87 1.87 0 008.36 53H9a1.26 1.26 0 01-1.25-1.25V10.94A1.26 1.26 0 019 9.69h54.93a1.25 1.25 0 011.19.88v-.26a1.88 1.88 0 00-1.88-1.87z"/><path class="cls-1" d="M63.24 53.59H8.36a2.51 2.51 0 01-2.5-2.5V10.32a2.5 2.5 0 012.5-2.5h54.88a2.51 2.51 0 012.5 2.5v40.77a2.51 2.51 0 01-2.5 2.5zM8.36 9.07a1.25 1.25 0 00-1.25 1.25v40.77a1.25 1.25 0 001.25 1.25h54.88a1.25 1.25 0 001.25-1.25V10.32a1.25 1.25 0 00-1.25-1.25z"/><path class="cls-6" d="M2.03 63.79h67.54v.76H2.03z"/><path class="cls-9" d="M56.72 64.48a3.28 3.28 0 01-3.91.55l-.15-.03a3.24 3.24 0 01-.6-.47 3.16 3.16 0 01-.47-.6l-.08-.14A3.29 3.29 0 0156 59.27l.14.08a3.56 3.56 0 01.6.48 3.52 3.52 0 01.47.59l.08.15a3.29 3.29 0 01-.57 3.91z"/><path class="cls-8" d="M52.26 60a3.24 3.24 0 014.55-.09l-.09-.11a3.53 3.53 0 00-.6-.48 3.29 3.29 0 00-4.53 4.54 3.19 3.19 0 00.47.6l.1.09a3.05 3.05 0 01-.38-.49 3.29 3.29 0 01.48-4.06z"/><path d="M57.2 60.42L52.66 65a3.24 3.24 0 01-.6-.47 3.16 3.16 0 01-.47-.6l4.53-4.54a3.56 3.56 0 01.6.48 3.52 3.52 0 01.48.55z" fill="#2a79a1"/><path d="M57.18 60.4a14.1 14.1 0 00-4.54 4.54 2.91 2.91 0 01-.58-.46 3 3 0 01-.46-.58 14.06 14.06 0 004.54-4.54 3.13 3.13 0 01.58.46 3.24 3.24 0 01.46.58z" fill="#63b5e4"/><path class="cls-16" d="M10.22 10.46h.68v1.63h-.68zM11.2 10.46h.68v1.63h-.68zM12.17 10.46h.68v1.63h-.68zM19.23 49.71v-2.05h-.43a1.7 1.7 0 01-.63.23v.36h.48v1.46h-.55v.48h1.61v-.48zM21.33 49.69h-.42a2.31 2.31 0 00.81-1.31.77.77 0 00-.84-.8A1.07 1.07 0 0020 48l.32.31a.64.64 0 01.45-.26.34.34 0 01.36.38c0 .36-.45.79-1.1 1.4v.34h1.78v-.5zM23.07 47.61c-.54 0-.9.44-.9 1.3s.36 1.32.9 1.32.91-.46.91-1.32-.37-1.3-.91-1.3zm0 2.17c-.19 0-.35-.18-.35-.87s.16-.85.35-.85.35.16.35.85-.16.87-.35.87zM28 48.87a.68.68 0 00-.44-1.25.7.7 0 00-.47 1.3.69.69 0 00-.43.62c0 .41.37.69.88.69s.89-.3.89-.7a.73.73 0 00-.43-.66zm-.46-.87a.3.3 0 01.31.33.57.57 0 01-.15.37c-.26-.1-.44-.2-.44-.41a.27.27 0 01.28-.29zm0 1.81a.36.36 0 01-.39-.36.54.54 0 01.19-.4c.32.14.54.22.54.44a.31.31 0 01-.33.34zM29.64 47.61c-.54 0-.9.45-.9 1.3s.36 1.33.9 1.33.91-.46.91-1.33-.37-1.3-.91-1.3zm0 2.17c-.19 0-.35-.18-.35-.87s.16-.85.35-.85.35.16.35.85-.15.87-.35.87z"/><path class="cls-16" transform="rotate(-61.8 25.356 48.921)" d="M23.89 48.67h2.92v.51h-2.92z"/><path class="cls-16" d="M15.29 47.52a.92.92 0 00-.73.36.93.93 0 00-1.66.56c0 .93 1.66 1.89 1.66 1.89s1.66-1 1.66-1.89a.93.93 0 00-.93-.92zM35.22 48.61h-.3v-.48h.33l.08-.58h.53v.58h.52v.51h-.52v.87c0 .24.11.35.28.35a.62.62 0 00.21 0l.1.47a1.55 1.55 0 01-.48.08c-.54 0-.75-.34-.75-.84zM38.62 49.55a.87.87 0 00.59.27c.27 0 .44-.12.44-.32s-.14-.39-.73-.39v-.44c.49 0 .64-.15.64-.36s-.12-.3-.33-.3a.74.74 0 00-.51.24l-.32-.38a1.27 1.27 0 01.85-.35c.56 0 .94.27.94.74a.64.64 0 01-.45.6.67.67 0 01.54.66c0 .51-.46.79-1 .79a1.18 1.18 0 01-.94-.38zM42.22 48.22a.61.61 0 00-.42-.22c-.3 0-.54.21-.56.84a.77.77 0 01.54-.29.75.75 0 01.81.84.87.87 0 01-.9.91c-.53 0-1-.39-1-1.34s.53-1.47 1.1-1.47a1.09 1.09 0 01.79.32zm-.2 1.2c0-.29-.15-.39-.35-.39a.49.49 0 00-.41.27c.06.43.24.56.42.56s.32-.13.32-.44zM43.38 49.54a.4.4 0 11-.38.4.38.38 0 01.38-.4zM45.75 48.22a.62.62 0 00-.42-.19c-.3 0-.54.21-.56.84a.77.77 0 01.54-.29.75.75 0 01.81.84.87.87 0 01-.9.91c-.53 0-1-.39-1-1.34s.53-1.47 1.1-1.47a1.08 1.08 0 01.79.32zm-.2 1.2c0-.29-.15-.39-.36-.39a.49.49 0 00-.41.27c.06.43.23.56.42.56s.35-.13.35-.44zM55.66 48.58a.75.75 0 00-.54.29c0-.64.26-.85.56-.85a.62.62 0 01.42.19l.33-.38a1.08 1.08 0 00-.79-.32c-.57 0-1.1.46-1.1 1.47s.5 1.35 1 1.35a.87.87 0 00.9-.91.75.75 0 00-.78-.84zm-.11 1.28c-.19 0-.37-.14-.42-.57a.49.49 0 01.41-.27c.2 0 .35.11.35.39s-.15.45-.34.45zM57.74 47.52c-.58 0-1 .48-1 1.4s.39 1.42 1 1.42 1-.5 1-1.42-.42-1.4-1-1.4zm0 2.33c-.21 0-.38-.19-.38-.93s.17-.91.38-.91.38.17.38.91-.12.93-.38.93zM50.5 47.5h1c.62 0 1.12.23 1.12.92s-.51 1-1.12 1h-.4v1h-.6zm1 1.38c.35 0 .53-.16.53-.46s-.18-.42-.53-.42h-.36v.86zM17.24 10.91h1.74v.73h-1.74z"/><path class="cls-16" d="M17.52 11.27l.34-.79-.91.51-1 .3 1 .3.91.51zM19.35 10.91h1.74v.73h-1.74z"/><path class="cls-16" d="M20.81 11.27l-.34-.79.91.51 1 .3-1 .3-.91.51z"/></g></g></svg>